<svg xmlns="http://www.w3.org/2000/svg" xmlns:xlink="http://www.w3.org/1999/xlink" width="103.625" height="103.633" viewBox="0 0 103.625 103.633">
  <defs>
    <clipPath id="clip-path">
      <path id="Path_1001" data-name="Path 1001" d="M164.244,37.391a3.11,3.11,0,0,0-3.109-3.109H63.727a3.11,3.11,0,0,0-3.109,3.109v97.415a3.11,3.11,0,0,0,3.109,3.109h97.408a3.11,3.11,0,0,0,3.109-3.109Z" transform="translate(0 0)" clip-rule="evenodd"/>
    </clipPath>
    <radialGradient id="radial-gradient" cx="0.764" cy="-0.188" r="1.188" gradientTransform="translate(0)" gradientUnits="objectBoundingBox">
      <stop offset="0" stop-color="#6be1fb"/>
      <stop offset="1" stop-color="#38bdfa"/>
    </radialGradient>
    <linearGradient id="linear-gradient" x1="-0.042" y1="-1.661" x2="-0.041" y2="-1.661" gradientUnits="objectBoundingBox">
      <stop offset="0" stop-color="#4ac5fa"/>
      <stop offset="1" stop-color="#97e8fc"/>
    </linearGradient>
  </defs>
  <g id="Group_41" data-name="Group 41" transform="translate(-60.619 -34.282)" clip-path="url(#clip-path)">
    <path id="Path_996" data-name="Path 996" d="M164.244,37.391a3.11,3.11,0,0,0-3.109-3.109H63.727a3.11,3.11,0,0,0-3.109,3.109v97.415a3.11,3.11,0,0,0,3.109,3.109h97.408a3.11,3.11,0,0,0,3.109-3.109Z" transform="translate(0 0)" fill="#1b72be" fill-rule="evenodd"/>
    <path id="Path_997" data-name="Path 997" d="M164.244,37.391a3.11,3.11,0,0,0-3.109-3.109h-58.03L60.619,107.876v26.93a3.11,3.11,0,0,0,3.109,3.109h97.408a3.11,3.11,0,0,0,3.109-3.109Z" transform="translate(0 0)" fill="#0568aa" fill-rule="evenodd"/>
    <path id="Path_998" data-name="Path 998" d="M108.53,137.915H101.3L82.636,100.384l36.377-66.1h5.854L86.784,100.248l21.746,37.668Zm19.577,0H110.084L88.848,101.13h75.4L164.244,108ZM110.194,34.282h-6.052L60.619,109.671v10.484Zm10.513,65.492h-20.5A6.672,6.672,0,0,1,94.4,89.754L104.66,71.977Zm43.537,0H122.261L105.437,70.63l20.984-36.348,7.6,0L122.981,71.858l5.126,10.531L164.244,96.6Z" transform="translate(0 0)" fill="#074f7f" fill-rule="evenodd"/>
    <path id="Path_999" data-name="Path 999" d="M110.013,250.151H57.407L36.949,214.712h73.064Zm-57.268,0H6.388V224.6l45.077-78.082H69.081L31,212.484Zm11.4-39.48H46.337a5.549,5.549,0,0,1-4.82-8.331l8.911-15.435Zm45.864,0h-41.2l-16.054-27.8,20.984-36.348h36.269Z" transform="translate(54.231 -112.237)" fill-rule="evenodd" fill="url(#radial-gradient)"/>
    <path id="Path_1000" data-name="Path 1000" d="M113.056,252.47H59.147L37.588,215.126h75.431ZM31.638,212.9,54.484,252.47H3.846l-.17-21.655,49.678-86.052H70.971Zm8.1,3.472,20.123,34.858h51.947l-.034-34.858Zm14.331-70.362L4.923,231.144l.157,20.083H52.33L30.2,212.9l38.616-66.89Zm10.715,65.077H46.652l-.023,0h-.023l-.023,0h-.023l-.023,0-.023,0-.023,0-.023,0-.023,0-.023,0-.023,0-.023,0-.023,0-.023,0-.023,0-.023,0-.023,0-.023,0-.023,0-.023,0-.023,0-.023,0-.023,0-.023,0-.023,0-.023,0-.023,0-.023,0-.022,0-.022,0-.022,0-.022,0-.022,0-.022-.005-.022,0-.022-.005-.022,0-.022-.005-.022-.005-.022-.005-.022,0-.022-.006-.022-.005-.022-.005-.022-.005-.022-.006-.022-.005-.022-.005-.022-.006-.022-.006-.022-.006-.022-.006-.022-.006-.022-.006-.022-.006-.022-.006-.022-.006-.022-.007-.022-.006-.022-.007-.022-.007-.022-.006-.022-.007-.021-.007L45.2,210.8l-.021-.007-.021-.008-.021-.007-.021-.007-.021-.007-.021-.008-.021-.008-.021-.007-.021-.008-.021-.008-.021-.008-.021-.008-.021-.008-.021-.008-.021-.008-.021-.009-.021-.008-.021-.009-.021-.008-.021-.009-.021-.009-.021-.009-.021-.008-.021-.01-.021-.009-.021-.009-.02-.009-.02-.009-.02-.01-.02-.009-.02-.01-.02-.009-.02-.01-.02-.01-.02-.01-.02-.01-.02-.01-.02-.01-.02-.01-.02-.01-.02-.011-.02-.01-.02-.011-.02-.01-.02-.011-.02-.011-.02-.011-.02-.011-.02-.01-.019-.011-.019-.012-.019-.011-.019-.011-.019-.012-.019-.011-.019-.011-.019-.012-.019-.012L44,210.231l-.019-.011-.019-.012-.019-.012-.019-.012-.019-.012-.019-.013-.019-.012-.019-.012-.019-.013-.019-.012-.019-.013-.018-.013-.018-.012-.018-.013-.018-.013-.018-.013-.018-.013L43.666,210l-.018-.013-.018-.014-.018-.013-.018-.013-.018-.014-.018-.013-.018-.014-.018-.014-.018-.014-.018-.013-.018-.014-.018-.014-.017-.015-.017-.014L43.4,209.8l-.017-.014-.017-.015-.017-.014-.017-.014-.017-.015-.017-.015-.017-.014-.017-.015-.017-.015-.017-.015-.017-.015-.017-.015-.017-.015-.017-.015-.016-.016-.016-.015-.016-.016-.016-.015-.016-.016-.016-.015-.016-.016-.016-.016-.016-.016L43,209.429l-.016-.016-.016-.016-.016-.016-.016-.016-.016-.016-.016-.017-.015-.016-.015-.016-.015-.017-.015-.017-.015-.016-.015-.017-.015-.017-.015-.017-.015-.017-.015-.017-.015-.017-.015-.017-.015-.017-.015-.017-.015-.018-.015-.017-.014-.018-.014-.017L42.624,209l-.014-.018-.014-.017-.014-.018-.014-.018-.014-.018-.014-.018-.014-.018-.014-.018-.014-.018-.014-.018-.014-.019-.013-.018-.013-.019-.013-.018-.013-.019-.013-.019-.013-.018-.013-.019-.013-.019-.013-.019-.013-.019-.013-.019-.013-.019-.013-.019-.012-.019-.012-.02-.012-.019-.012-.019-.012-.02-.012-.019-.012-.02-.012-.02-.012-.019-.012-.02-.012-.02-.012-.02-.012-.02-.012-.02-.011-.02-.011-.02-.011-.02-.011-.02-.011-.02-.011-.02-.011-.021-.011-.02-.011-.02-.011-.021-.011-.02-.01-.02-.01-.021-.01-.02-.01-.021-.01-.02-.01-.021-.01-.021-.01-.02-.01-.021-.01-.021-.01-.02-.009-.021-.009-.021-.009-.02-.009-.021-.009-.021-.009-.021-.009-.021-.009-.021-.009-.021-.009-.021-.008-.021-.008-.021-.008-.021-.008-.021-.008-.021-.008-.021-.008-.022-.008-.021-.008-.021-.008-.021-.008-.021-.008-.022-.007-.021-.007-.021-.007-.022-.007-.021-.007-.022-.007-.021-.007-.021-.007-.022-.007-.021-.007-.022-.006-.022-.006-.021-.006-.022-.006-.021-.006-.022-.006-.021-.006-.022-.006-.022-.006-.021-.006-.022-.006-.022-.005-.022-.005-.021-.005-.022-.005-.022-.005-.022-.005-.021,0-.022,0-.022,0-.022,0-.022,0-.022,0-.022,0-.022,0-.022,0-.022,0-.021,0-.022,0-.022,0-.022,0-.023,0-.021,0-.023,0-.022,0-.022,0-.022,0-.022,0-.022,0-.022,0-.022,0-.022,0-.022,0-.022,0-.023,0-.022,0-.022,0-.022,0-.022,0-.022,0-.023,0-.022,0-.022,0-.022,0-.022,0-.023,0-.022v-.72l0-.022,0-.022,0-.022,0-.022,0-.022,0-.023,0-.022,0-.022,0-.022,0-.022,0-.023,0-.022,0-.022,0-.022,0-.022,0-.022,0-.022,0-.022,0-.023,0-.022,0-.022,0-.022,0-.022,0-.022,0-.022,0-.022,0-.022,0-.022,0-.022,0-.022,0-.022,0-.022,0-.022,0-.021,0-.022,0-.022,0-.022,0-.022,0-.022.005-.022.005-.021.005-.022.005-.022.005-.022.005-.021.006-.022.006-.022.006-.022.006-.021.006-.022.006-.022.006-.021.006-.022.006-.021.006-.022.006-.021.007-.022.007-.021.007-.022.007-.021.007-.022.007-.021.007-.022.007-.021.007-.021.007-.021.008-.022.008-.021.008-.021.008-.021.008-.022.008-.021.008-.021.008-.021.008-.021.008-.021.008-.021.008-.021.009-.021.009-.021.009-.021.009-.021.009-.021.009-.021.009-.021.009-.021.009-.02.009-.021.01-.021.01-.02.01-.021.01-.021.01-.02.01-.021.01-.021.01-.02.01-.02.01-.021.01-.02.011-.021.011-.02.011-.02.011-.02.011-.021.011-.02.011-.02.011-.02.011-.02.011-.02.011-.021.012-.019.012-.02,8.911-15.435Zm48.206,0H69.451L53.4,183.28l22.236-38.516h36.909Zm-69.759-7.711-.01.017-.009.015-.009.015-.009.016-.009.016-.009.016-.008.015-.008.016-.009.016-.008.015-.008.016-.008.016-.008.016-.008.015-.008.016-.008.017-.008.015-.008.016-.008.016-.008.016-.008.016-.008.016-.007.017-.007.015-.007.016-.007.017-.007.016-.007.016L43,203.84l-.007.016-.007.017-.007.016-.007.016-.007.016-.007.017-.007.016-.006.016-.006.017-.006.016-.006.017-.006.016-.006.016-.006.017-.006.017-.006.016-.006.016-.006.017-.006.017-.006.016-.006.017-.005.016-.005.017-.005.017-.005.016-.005.017-.005.017-.005.016-.005.017,0,.017,0,.016,0,.018,0,.016,0,.017,0,.017,0,.017,0,.017,0,.016,0,.017,0,.017,0,.017,0,.017,0,.017,0,.017,0,.017,0,.017,0,.017,0,.017,0,.017,0,.017,0,.017,0,.017,0,.017,0,.017,0,.017,0,.017,0,.017,0,.017,0,.017,0,.018,0,.016,0,.018,0,.017,0,.017,0,.017,0,.017,0,.017,0,.017,0,.018,0,.017,0,.017,0,.017,0,.018,0,.017,0,.017,0,.017,0,.018,0,.017,0,.017v.559l0,.034v.035l0,.034v.035l0,.034,0,.018,0,.034,0,.034,0,.018,0,.017,0,.034,0,.017,0,.034,0,.018,0,.017.005.034.005.034,0,.018,0,.017.006.034,0,.017.006.034,0,.017,0,.017.007.034,0,.017.007.034,0,.017.008.034,0,.017,0,.016,0,.018,0,.016,0,.017.009.034,0,.017,0,.017,0,.016,0,.017,0,.017,0,.017.01.033.005.017.005.016.011.034.005.016.005.017.006.017.006.016.006.017.006.016.006.017.006.016.006.017.006.016.006.017.006.016.006.017.013.032.006.017.006.016.007.016.007.017.007.016.021.049.007.017.007.016.007.016.007.016.007.016.007.017.015.032.008.015.008.016.008.017.008.015.008.016.008.016.008.016.008.016.008.016.008.015.025.049.009.016.008.015.009.016.009.016.009.015.009.016.009.015.009.016.009.015.009.016.009.015.009.015.009.015.01.016.009.015.009.015.01.015.01.015.01.015.01.015.01.015.01.014.02.03.01.014.01.015.01.015.01.014.01.015.021.028.011.015.01.014.021.028.01.014.011.014.011.015.011.013.011.014.022.028.011.013.011.014.011.014.012.014.011.013.011.013.011.014.011.013.011.014.011.013.012.013.011.013.012.013.012.014.011.012.012.013.012.013.012.013.012.013.012.013.012.012.012.013.012.013.012.012.012.012.012.013.013.013.024.024.013.012.012.012.012.012.013.012.013.013.013.011.013.012.013.012.013.012.013.011.013.012.013.012.013.012.012.011.013.011.013.012.014.011.013.012.013.011.013.011.013.011.014.011.013.011.013.011.014.011.013.011.014.01.014.011.014.011.013.01.014.011.014.011.013.01.014.01.014.011.014.01.014.01.014.011.014.01.014.01.014.01.014.009.014.01.015.01.014.01.029.02.014.009.015.009.015.01.014.009.015.01.015.009.029.018.015.01.015.009.014.009.015.008.06.036.015.009.015.008.015.008.016.009.015.009.015.008.015.008.015.008.016.008.015.009.016.008.016.008.015.007.015.008.032.016.015.007.032.016.015.007.016.008.016.007.015.007.016.007.016.008.016.007.016.007.016.007.016.007.016.006.016.007.016.007.016.007.016.006.033.014.016.006.016.006.016.006.017.007.032.012.017.006.016.006.017.006.016.006.016.005.017.006.016.006.016.005.017.006.016.005.016.006.033.01.017.005.017.006.033.01.017.005.016,0,.017.005.018.005.017.005.017,0,.018.005.017,0,.016.005.017,0,.018,0,.017.005.016,0,.017,0,.018,0,.017,0,.017,0,.017,0,.017,0,.018,0,.017,0,.017,0,.018,0,.017,0,.017,0,.018,0,.018,0,.018,0,.018,0,.034.006.018,0,.018,0,.017,0,.018,0,.018,0,.018,0,.018,0,.017,0,.018,0,.036,0,.018,0,.017,0h.017l.018,0,.019,0,.017,0h.017l.019,0h.018l.017,0h.036l.018,0H62.634L51.067,189.8Zm33.118-57.366L54.835,183.28l15.334,26.561h41.573l-.433-63.833Z" transform="translate(53.592 -112.65)" fill-rule="evenodd" fill="url(#linear-gradient)"/>
  </g>
</svg>
