<svg xmlns="http://www.w3.org/2000/svg" width="113.272" height="289.807" viewBox="0 0 113.272 289.807">
  <g id="freepik--Character--inject-34" transform="translate(507.336 -85.377)">
    <g id="freepik--Floor--inject-34" transform="translate(-28.796 49.85)">
      <g id="freepik--character--inject-34-2" data-name="freepik--character--inject-34" transform="translate(-478.54 35.527)">
        <path id="Path_571" data-name="Path 571" d="M447.65,339.23l-12.86,37.53a1.21,1.21,0,0,1-2.29,0l-12.69-37.83Z" transform="translate(-340.204 -129.35)" fill="#ffa8a7"/>
        <path id="Path_572" data-name="Path 572" d="M432.5,376.75a1.21,1.21,0,0,0,2.29,0l2.51-7.33h0a6.69,6.69,0,0,1-6.95-.39l-.56-.38Z" transform="translate(-340.204 -129.35)" fill="#263238"/>
        <path id="Path_573" data-name="Path 573" d="M420.29,171.58v8.1l-.46,159.24a17.8,17.8,0,0,0,11.73,5.52c6.73.7,13.64-1.51,16.1-5.21l.45-159.15v-8.47C447.78,177.09,420.05,177.08,420.29,171.58Z" transform="translate(-340.204 -129.35)" fill="#30475e"/>
        <path id="Path_574" data-name="Path 574" d="M420.21,185.55v8.2c-.08,2.38,5,3.92,10.83,4.45,7.76.74,16.9-1.36,17-4.51v-8.21c-.12,3.15-9.26,5.26-17,4.52-5.6-.52-10.5-2-10.78-4.19h0A.48.48,0,0,1,420.21,185.55Z" transform="translate(-340.204 -129.35)" fill="#ebebeb"/>
        <path id="Path_575" data-name="Path 575" d="M420.23,187.6c-.2,5.52,27.62,5.45,27.82-.07v-8.21c-.2,5.52-28,5.59-27.82.07Z" transform="translate(-340.204 -129.35)" fill="#30475e"/>
        <path id="Path_576" data-name="Path 576" d="M420.29,171.58v8.1c-.24,5.42,26.61,5.58,27.82.4a1.443,1.443,0,0,0,.05-.31v-8.16C447.78,177.09,420.05,177.08,420.29,171.58Z" transform="translate(-340.204 -129.35)" fill="#ebebeb"/>
        <path id="Path_577" data-name="Path 577" d="M448.23,136.86v-.35c0-3.95-6.22-7.16-13.9-7.16s-13.91,3.21-13.91,7.16v3.73l-.13,31.34c-.1,2.35,4.9,3.9,10.7,4.46,7.76.76,16.94-1.29,17.11-4.43h0l.12-34.5A1.185,1.185,0,0,0,448.23,136.86Z" transform="translate(-340.204 -129.35)" fill="#f28f8f"/>
        <ellipse id="Ellipse_172" data-name="Ellipse 172" cx="13.91" cy="7.16" rx="13.91" ry="7.16" transform="translate(80.216 0)" fill="#fff" opacity="0.2"/>
        <path id="Path_578" data-name="Path 578" d="M448.08,180.08l.15-43.22c-.18,3.38-6,6.58-12.25,6.81l-.45,200.9-.74,32.19,12.86-37.53h0Z" transform="translate(-340.204 -129.35)" opacity="0.1"/>
        <path id="Path_579" data-name="Path 579" d="M403.09,213.56c5.29-.77,11.81,3.21,16.35,9.59s20.36,21.91,22.1,26.85c1.26,3.6.52,10.37-6.93,7.19-7.21-3.07-30.2-25.62-30.2-25.62Z" transform="translate(-340.204 -129.35)" fill="#b16668"/>
        <path id="Path_580" data-name="Path 580" d="M400.56,213.56a26.22,26.22,0,0,1,5.18-.58c1.83.12,5.94,1.21,10.17,5.33s15.21,17.43,15.21,17.43.49,3.74-3.19,7.91-7.12,4.17-7.12,4.17L404.5,234.31Z" transform="translate(-340.204 -129.35)" fill="#37474f"/>
        <path id="Path_581" data-name="Path 581" d="M436.4,242.67,448,225.83V213.46s2.56.86,3.58,4.85,2.29,8.63,1.78,12-8.54,23.95-12.87,26.85S436.4,242.67,436.4,242.67Z" transform="translate(-340.204 -129.35)" fill="#b16668"/>
        <path id="Path_582" data-name="Path 582" d="M384.19,207.97l2.26,14.24,14.11-.76-2.02-16.54Z" transform="translate(-340.204 -129.35)" fill="#b16668"/>
        <path id="Path_583" data-name="Path 583" d="M374.7,190.51s-3.36,5.1-3,5.6,2.86,1,2.86,1Z" transform="translate(-340.204 -129.35)" fill="#9a4a4d"/>
        <path id="Path_584" data-name="Path 584" d="M384,176.39c-6.8,1.44-8.77,4.43-9.41,15.24-.67,11.3.48,14.85,2,16.37,1,1,6.57,1.21,9.38.44,3.51-1,11.46-3.79,15.18-9.47,4.37-6.68,5.52-15.75.84-19.46C395.4,174.27,386.81,175.81,384,176.39Z" transform="translate(-340.204 -129.35)" fill="#b16668"/>
        <path id="Path_585" data-name="Path 585" d="M384.32,208.75a27.66,27.66,0,0,0,3.58-.9,6.27,6.27,0,0,1-3.41,2Z" transform="translate(-340.204 -129.35)" fill="#9a4a4d"/>
        <path id="Path_586" data-name="Path 586" d="M374.2,179.82a13,13,0,0,0,3,1.21c1.66.48,1.41,1.1,1.64,2.62a6.18,6.18,0,0,0,1.87,3.59c.65.59,1.13.64,1.35,1.54a12.749,12.749,0,0,1,0,2.83c0,1.88,1.22,3.3,1.8.79,0,0,1.08-4.18,4.6-3.65s3.83,4.49,2.15,7.6c-1,1.9-3.76,1.4-3.76,1.4a12.27,12.27,0,0,0,3.68,9.47s3.5,2.6,9-.1a71.06,71.06,0,0,0,6.26-9.51c2.44-4.24,4.55-9.46,3.72-14.45a9.33,9.33,0,0,0-2.37-5,3.4,3.4,0,0,1-1.14-2.5,4.85,4.85,0,0,0-1.7-2.87,4.94,4.94,0,0,0-5-.67,4.14,4.14,0,0,0-3.16-3.7,7.6,7.6,0,0,0-5.07.7,5.6,5.6,0,0,0-9.4-.59,3,3,0,0,0-2.36-1.36,7.31,7.31,0,0,0-2.77.44,10.32,10.32,0,0,0-2.16.92A6.9,6.9,0,0,0,371.3,176a6,6,0,0,0,2.9,3.82Z" transform="translate(-340.204 -129.35)" fill="#263238"/>
        <path id="Path_587" data-name="Path 587" d="M406.07,178.69l4.07-2.4a2.362,2.362,0,1,0-4.07,2.4Z" transform="translate(-340.204 -129.35)" fill="#263238"/>
        <path id="Path_588" data-name="Path 588" d="M409.87,390.08l.09.91a16.348,16.348,0,0,1,.09,3.63,3.22,3.22,0,0,1-1.12,2.43,10.081,10.081,0,0,1-2.65,1,9.31,9.31,0,0,1-6.17-.61c-1.6-.77-2.85-2-4.58-2.47a34.689,34.689,0,0,0-5.44-.9,12.319,12.319,0,0,1-2.41-.44,11.18,11.18,0,0,1-1.73-.78,16.9,16.9,0,0,1-5.13-3.75,8,8,0,0,1-1.84-3.66c-.16-.81-.48-3.12.85-3.06,6.55.29,13,1.7,19.58,1.62a9.077,9.077,0,0,1,1.28,0,5.56,5.56,0,0,1,2.2,1,2.26,2.26,0,0,0,2,.49,10.15,10.15,0,0,1,3.39.05,1.6,1.6,0,0,1,1.17.8,1.34,1.34,0,0,1,.1.49C409.66,388,409.77,389,409.87,390.08Z" transform="translate(-340.204 -129.35)" fill="#263238"/>
        <path id="Path_589" data-name="Path 589" d="M409.2,382.24l-.34,4.93c-.32,1.88-6.72,3-8-.29l-.63-5.6Z" transform="translate(-340.204 -129.35)" fill="#b16668"/>
        <path id="Path_590" data-name="Path 590" d="M384.83,401.76s.78,2.56,1.19,4.8c.32,1.78.77,4.76.12,6.08s-3.09,2.12-6.85,2c-2.43-.08-6.25,1.49-8.88,2.88s-8.29,1.9-11.12,1.51c-3.33-.47-6.74-2.49-7.25-3.88s.24-2.82,8.18-6c.07,0,11-3.32,14.92-7.43Z" transform="translate(-340.204 -129.35)" fill="#263238"/>
        <path id="Path_591" data-name="Path 591" d="M384.9,398.59s-.06,2.17-.07,3.42-1.53,3.06-5.33,2.84c-2.67-.16-4.51-.92-4.36-3.11l.07-3.17Z" transform="translate(-340.204 -129.35)" fill="#b16668"/>
        <path id="Path_592" data-name="Path 592" d="M411.78,344.33c-1.13-9.6-2-15.11-2-15.11s.2-13.38,1-25.85c.85-13.48.66-30.45,1-33.81,0,0-43.29-9.24-43.65,6.37-.4,18.14.8,55.67,1.06,60.56.36,6.86.38,14,1.54,25.13,1.15,11,4.48,36.95,4.48,36.95a10.28,10.28,0,0,0,9.69,0s3.77-31.11,3.62-39a107.725,107.725,0,0,0-1.64-17.1l3.41-35.22s1.34,10.89,1.7,17.75,1.3,11.05,3,23.82c1.47,11.07,5.2,34.45,5.2,34.45a8.77,8.77,0,0,0,9.21-.37S412.91,353.94,411.78,344.33Z" transform="translate(-340.204 -129.35)" fill="#30475e"/>
        <path id="Path_593" data-name="Path 593" d="M411.78,344.33c-1.13-9.6-2-15.11-2-15.11s.2-13.38,1-25.85c.85-13.48.66-30.45,1-33.81,0,0-43.29-9.24-43.65,6.37-.4,18.14.8,55.67,1.06,60.56.36,6.86.38,14,1.54,25.13,1.15,11,4.48,36.95,4.48,36.95a10.28,10.28,0,0,0,9.69,0s3.77-31.11,3.62-39a107.725,107.725,0,0,0-1.64-17.1l3.41-35.22s1.34,10.89,1.7,17.75,1.3,11.05,3,23.82c1.47,11.07,5.2,34.45,5.2,34.45a8.77,8.77,0,0,0,9.21-.37S412.91,353.94,411.78,344.33Z" transform="translate(-340.204 -129.35)" opacity="0.3"/>
        <path id="Path_594" data-name="Path 594" d="M406.76,290.88s-3,4.95-12.1,8.57l-2.54,8.5-.27,14.94c-.35-4.81-.88-10.07-1.56-15.64l1-8.76S401.37,295.45,406.76,290.88Z" transform="translate(-340.204 -129.35)" opacity="0.15"/>
        <path id="Path_595" data-name="Path 595" d="M413.45,222.77c-1.74-6.19-5.83-8.92-10.36-9.21-1.15-.07-3.49,0-3.49,0,.32,2.63-7.76,4.48-14,3-1.9.49-5,1.2-6.61,1.73-4.51,1.5-9.93,7.14-10.63,21.87,0,0-.72,31.65-.5,40.85,11.15,4.7,21.92,5.29,28.41,4,13.53-2.63,15.75-8.43,15.75-8.43s-.12-8-.63-20.87C413.65,237.51,414.2,225.45,413.45,222.77Z" transform="translate(-340.204 -129.35)" fill="#455a64"/>
        <path id="Path_596" data-name="Path 596" d="M360.7,275.23a8.39,8.39,0,0,1,3.95,7c.19,2.88.19,6,1.54,8.61.22.43,1.4,1.4,1.86,1.26v-3.68c.75-.95,2.8-2.72,3.33-3.81.88-1.82-.15-4,.38-6a8.909,8.909,0,0,0,.68-2.42,6.77,6.77,0,0,0-2.25-5.54,70.888,70.888,0,0,1-5.55-5.41c-2.32-2.33-5.54-5.76-7.86-8.1l15.57-14.93a22.47,22.47,0,0,0,4.44-5.91c2.55-4.9,6-13.49,2.15-18-5.55,0-8.7.85-14.37,7.46-4.89,5.7-20.5,24.4-22.51,27.57s-3.16,5.34.69,8.86a115.593,115.593,0,0,0,9.82,7.51C355.2,271.59,358.07,273.36,360.7,275.23Z" transform="translate(-340.204 -129.35)" fill="#b16668"/>
        <path id="Path_597" data-name="Path 597" d="M356.79,257.19a17.53,17.53,0,0,1-4.77,3.28,14.32,14.32,0,0,0,5.85-2.18Z" transform="translate(-340.204 -129.35)" fill="#9a4a4d"/>
        <path id="Path_598" data-name="Path 598" d="M380.69,217.8a27.51,27.51,0,0,0-6.72.51c-3.37.73-5.64,2.44-11.48,9.05s-9.94,12-9.94,12-1.68,3.72,3,7.94,8.9,3.49,8.9,3.49l13.12-12.76S386.93,228.24,380.69,217.8Z" transform="translate(-340.204 -129.35)" fill="#37474f"/>
      </g>
    </g>
  </g>
</svg>
