<svg width="110" height="109" viewBox="0 0 110 109" fill="none" xmlns="http://www.w3.org/2000/svg">
<path fill-rule="evenodd" clip-rule="evenodd" d="M106.976 6.10906C106.976 5.28458 106.648 4.49395 106.065 3.91096C105.482 3.32796 104.691 3.00033 103.867 3.00006H6.45898C5.6345 3.00033 4.84387 3.32796 4.26087 3.91096C3.67788 4.49395 3.35024 5.28458 3.34998 6.10906V103.524C3.35024 104.349 3.67788 105.139 4.26087 105.722C4.84387 106.305 5.6345 106.633 6.45898 106.633H103.867C104.691 106.633 105.482 106.305 106.065 105.722C106.648 105.139 106.976 104.349 106.976 103.524V6.10906Z" fill="#1B72BE"/>
<path fill-rule="evenodd" clip-rule="evenodd" d="M106.976 6.10906C106.976 5.28458 106.648 4.49395 106.065 3.91096C105.482 3.32796 104.692 3.00033 103.867 3.00006H45.8371L3.35107 76.5941V103.524C3.35134 104.349 3.67898 105.139 4.26197 105.722C4.84497 106.305 5.6356 106.633 6.46008 106.633H103.868C104.693 106.633 105.483 106.305 106.066 105.722C106.649 105.139 106.977 104.349 106.977 103.524L106.976 6.10906Z" fill="#0568AA"/>
<path fill-rule="evenodd" clip-rule="evenodd" d="M51.2621 106.633H44.0321L25.3681 69.1021L61.7451 3.00206H67.5991L29.5161 68.9661L51.2621 106.634V106.633ZM70.8391 106.633H52.8161L31.5801 69.8481H106.98L106.976 76.7181L70.8391 106.633ZM52.9261 3.00006H46.8741L3.35107 78.3891V88.8731L52.9261 3.00006ZM63.4391 68.4921H42.9391C41.7637 68.4984 40.6075 68.1941 39.5875 67.61C38.5675 67.0258 37.7199 66.1826 37.1306 65.1656C36.5412 64.1487 36.2309 62.9941 36.2312 61.8186C36.2315 60.6432 36.5422 59.4888 37.1321 58.4721L47.3921 40.6951L63.4391 68.4921ZM106.976 68.4921H64.9931L48.1691 39.3481L69.1531 3.00006H76.7531L65.7131 40.5761L70.8391 51.1071L106.976 65.3181V68.4921Z" fill="#074F7F"/>
<path fill-rule="evenodd" clip-rule="evenodd" d="M106.976 106.632H54.3701L33.9121 71.1931H106.976V106.632ZM49.7081 106.632H3.35107V81.0811L48.4281 2.99905H66.0441L27.9631 68.965L49.7081 106.632ZM61.1081 67.1521H43.3001C42.3237 67.1554 41.3637 66.901 40.5171 66.4146C39.6705 65.9282 38.9672 65.2271 38.4782 64.3819C37.9893 63.5368 37.732 62.5776 37.7323 61.6013C37.7326 60.6249 37.9906 59.6659 38.4801 58.821L47.3911 43.386L61.1081 67.1521ZM106.972 67.1521H65.7721L49.7181 39.3521L70.7021 3.00404H106.971L106.972 67.1521Z" fill="url(#paint0_radial)"/>
<path fill-rule="evenodd" clip-rule="evenodd" d="M109.38 108.538H55.471L33.912 71.1941H109.343L109.38 108.538ZM27.962 68.968L50.808 108.538H0.17L0 86.8831L49.678 0.831055H67.295L27.962 68.968ZM36.062 72.44L56.185 107.298H108.132L108.098 72.44H36.062ZM50.393 2.07805L1.247 87.2121L1.404 107.295H48.654L26.524 68.968L65.14 2.07805H50.393ZM61.108 67.1551H42.976H42.953H42.93H42.907H42.884H42.861H42.838H42.815H42.792H42.769H42.746H42.723H42.7H42.677H42.654H42.631H42.608H42.585H42.562H42.539H42.516H42.493H42.47H42.447H42.424H42.401H42.378H42.355H42.332H42.31H42.288H42.266H42.244H42.222L42.2 67.1501H42.178L42.156 67.1451H42.134L42.112 67.1401L42.09 67.1351L42.068 67.1301H42.046L42.024 67.1241L42.002 67.119L41.98 67.1141L41.958 67.1091L41.936 67.1031L41.914 67.0981L41.892 67.093L41.87 67.0871L41.848 67.0811L41.826 67.0751L41.804 67.0691L41.782 67.063L41.76 67.0571L41.738 67.0511L41.716 67.0451L41.694 67.039L41.672 67.0321L41.65 67.026L41.628 67.0191L41.606 67.0121L41.584 67.0061L41.562 66.9991L41.541 66.9921L41.524 66.8681L41.503 66.8611L41.482 66.8531L41.461 66.8461L41.44 66.8391L41.419 66.8321L41.398 66.8241L41.377 66.8161L41.356 66.8091L41.335 66.8011L41.314 66.7931L41.293 66.785L41.272 66.7771L41.251 66.7691L41.23 66.761L41.209 66.7531L41.188 66.744L41.167 66.7361L41.146 66.7271L41.125 66.7191L41.104 66.7101L41.083 66.701L41.062 66.692L41.041 66.6841L41.02 66.6741L40.999 66.6651L40.978 66.6561L40.958 66.647L40.938 66.6381L40.918 66.6281L40.898 66.619L40.878 66.6091L40.858 66.6001L40.838 66.5901L40.818 66.58L40.798 66.5701L40.778 66.5601L40.758 66.55L40.738 66.5401L40.718 66.5301L40.698 66.5201L40.678 66.509L40.658 66.4991L40.638 66.4881L40.618 66.4781L40.598 66.4671L40.578 66.4561L40.558 66.4451L40.538 66.4341L40.518 66.4241L40.499 66.4131L40.48 66.401L40.461 66.3901L40.442 66.3791L40.423 66.3671L40.404 66.356L40.385 66.345L40.366 66.3331L40.347 66.3211L40.324 66.2991L40.305 66.2881L40.286 66.276L40.267 66.2641L40.248 66.2521L40.229 66.2401L40.21 66.2271L40.191 66.2151L40.172 66.203L40.153 66.19L40.134 66.1781L40.115 66.1651L40.097 66.1521L40.079 66.1401L40.061 66.1271L40.043 66.1141L40.025 66.1011L40.007 66.0881L39.99 66.0681L39.972 66.0551L39.954 66.0411L39.936 66.0281L39.918 66.0151L39.9 66.0011L39.882 65.9881L39.864 65.9741L39.846 65.9601L39.828 65.9461L39.81 65.9331L39.792 65.9191L39.774 65.9051L39.757 65.8901L39.74 65.8761L39.724 65.8681L39.707 65.854L39.69 65.8391L39.673 65.8251L39.656 65.8111L39.639 65.7961L39.622 65.7811L39.605 65.7671L39.588 65.7521L39.571 65.7371L39.554 65.7221L39.537 65.7071L39.52 65.692L39.503 65.677L39.486 65.662L39.47 65.6461L39.454 65.6311L39.438 65.6151L39.422 65.6001L39.406 65.5841L39.39 65.5691L39.374 65.5531L39.358 65.537L39.342 65.5211L39.324 65.4971L39.308 65.481L39.292 65.4651L39.276 65.4491L39.26 65.4331L39.244 65.4171L39.228 65.4001L39.213 65.384L39.198 65.3681L39.183 65.3511L39.168 65.3341L39.153 65.3181L39.138 65.3011L39.123 65.2841L39.108 65.2671L39.093 65.2501L39.078 65.233L39.063 65.216L39.048 65.1991L39.033 65.1821L39.018 65.1651L39.003 65.147L38.988 65.1301L38.974 65.1121L38.96 65.095L38.948 65.0681L38.934 65.05L38.92 65.0331L38.906 65.0151L38.892 64.9971L38.878 64.979L38.864 64.9611L38.85 64.9431L38.836 64.925L38.822 64.9071L38.808 64.8891L38.794 64.8701L38.781 64.8521L38.768 64.8331L38.755 64.815L38.742 64.7961L38.729 64.7771L38.716 64.759L38.703 64.7401L38.69 64.7211L38.677 64.7021L38.664 64.6831L38.651 64.664L38.638 64.6451L38.625 64.6261L38.613 64.6071L38.601 64.5871L38.589 64.5681L38.577 64.5491L38.565 64.5291L38.553 64.5101L38.541 64.4901L38.529 64.47L38.517 64.451L38.505 64.4311L38.493 64.4111L38.481 64.3911L38.469 64.371L38.457 64.3511L38.446 64.3311L38.435 64.3111L38.424 64.2911L38.413 64.2711L38.402 64.2511L38.391 64.231L38.38 64.2101L38.369 64.19L38.358 64.1701L38.347 64.149L38.336 64.1291L38.326 64.1091L38.316 64.0881L38.306 64.0681L38.296 64.0471L38.286 64.0271L38.276 64.0061L38.266 63.9851L38.256 63.9651L38.246 63.9441L38.236 63.923L38.226 63.9031L38.217 63.882L38.208 63.8611L38.199 63.841L38.19 63.8201L38.181 63.7991L38.172 63.7781L38.163 63.757L38.154 63.7361L38.145 63.7151L38.136 63.6941L38.128 63.673L38.12 63.6521L38.112 63.6311L38.104 63.6101L38.096 63.5891L38.088 63.5681L38.08 63.5461L38.072 63.5251L38.064 63.5041L38.056 63.483L38.048 63.4621L38.04 63.44L38.033 63.4191L38.026 63.3981L38.019 63.3761L38.012 63.3551L38.005 63.3331L37.998 63.3121L37.991 63.2911L37.984 63.2691L37.977 63.248L37.97 63.2261L37.964 63.2041L37.958 63.1831L37.952 63.1611L37.946 63.1401L37.94 63.1181L37.934 63.0971L37.928 63.0751L37.922 63.0531L37.916 63.0321L37.91 63.0101L37.904 62.9881L37.899 62.966L37.894 62.9451L37.889 62.923L37.884 62.901L37.879 62.8791L37.874 62.858V62.8361V62.8141V62.7921V62.7701V62.748V62.7261V62.7041V62.6821V62.66V62.6391V62.6171V62.595V62.5731V62.55V62.5291V62.5061V62.4841V62.4621V62.44V62.4181V62.3961V62.3741V62.3521V62.33V62.3081V62.2861V62.2631V62.2411V62.2191V62.1971V62.175V62.1531V62.1301V62.108V62.0861V62.0641V62.0421V62.0191V61.9971V61.2771V61.2551V61.233V61.2111V61.1891V61.1671V61.1441V61.1221V61.1001V61.078V61.0561V61.0331V61.011V60.9891V60.9671V60.9451V60.923V60.901V60.8791V60.856V60.8341V60.8121V60.7901V60.7681V60.746V60.7241V60.7021V60.6801V60.6581V60.636V60.6141V60.5921V60.5701V60.548V60.5271V60.5051V60.483V60.4611V60.4391V60.4171L37.879 60.3951L37.884 60.3741L37.889 60.3521L37.894 60.33L37.899 60.3081L37.904 60.287L37.91 60.2651L37.916 60.2431L37.922 60.2211L37.928 60.2001L37.934 60.1781L37.94 60.1561L37.946 60.1351L37.952 60.1131L37.958 60.0921L37.964 60.0701L37.97 60.0491L37.977 60.0271L37.984 60.0061L37.991 59.9841L37.998 59.9631L38.005 59.9411L38.012 59.9201L38.019 59.8981L38.026 59.8771L38.033 59.856L38.04 59.8351L38.048 59.813L38.056 59.7921L38.064 59.7711L38.072 59.7501L38.08 59.7281L38.088 59.7071L38.096 59.6861L38.104 59.6651L38.112 59.6441L38.12 59.623L38.128 59.6021L38.136 59.5811L38.145 59.5601L38.154 59.539L38.163 59.5181L38.172 59.4971L38.181 59.4761L38.19 59.455L38.199 59.4341L38.208 59.4131L38.217 59.3931L38.226 59.3721L38.236 59.3511L38.246 59.3311L38.256 59.3101L38.266 59.289L38.276 59.2691L38.286 59.248L38.296 59.2271L38.306 59.2071L38.316 59.1871L38.326 59.1661L38.336 59.1461L38.347 59.1251L38.358 59.1051L38.369 59.0851L38.38 59.065L38.391 59.0441L38.402 59.024L38.413 59.0041L38.424 58.9841L38.435 58.9641L38.446 58.9441L38.457 58.923L38.469 58.9041L38.481 58.884L47.392 43.4491L61.108 67.1551ZM109.314 67.1551H65.775L49.724 39.3481L71.96 0.832062H108.869L109.314 67.1551ZM39.555 59.4441L39.545 59.4611L39.536 59.4761L39.527 59.4911L39.518 59.507L39.509 59.5231L39.5 59.539L39.492 59.554L39.484 59.5701L39.475 59.5861L39.467 59.6011L39.459 59.6171L39.451 59.6331L39.443 59.649L39.435 59.664L39.427 59.6801L39.419 59.6971L39.411 59.7121L39.403 59.7281L39.395 59.744L39.387 59.7601L39.379 59.776L39.371 59.7921L39.364 59.8091L39.357 59.8241L39.35 59.8401L39.343 59.8571L39.336 59.873L39.329 59.8891L39.324 59.9081L39.317 59.9241L39.31 59.9411L39.303 59.9571L39.296 59.9731L39.289 59.9891L39.282 60.0061L39.275 60.022L39.269 60.0381L39.263 60.0551L39.257 60.0711L39.251 60.0881L39.245 60.104L39.239 60.1201L39.233 60.1371L39.227 60.1541L39.221 60.1701L39.215 60.1861L39.209 60.203L39.203 60.22L39.197 60.2361L39.191 60.2531L39.186 60.2691L39.181 60.2861L39.176 60.3031L39.171 60.3191L39.166 60.3361L39.161 60.3531L39.156 60.369L39.151 60.386V60.4031V60.4191V60.4371V60.453V60.47V60.4871V60.5041V60.5211V60.537V60.554V60.5711V60.5881V60.6051V60.6221V60.6391V60.6561V60.673V60.69V60.7071V60.7241V60.7411V60.7581V60.7751V60.7921V60.8091V60.826V60.843V60.8601V60.8771V60.8941V60.912V60.9281V60.9461V60.9631V60.9801V60.9971V61.0141V61.0311V61.048V61.0661V61.0831V61.1001V61.1171V61.1351V61.1521V61.1691V61.1861V61.2041V61.2211V61.2381V61.7971V61.8311V61.8661V61.9001V61.9351V61.9691V61.9871V62.0211V62.0551V62.0731V62.0901V62.1241V62.1411V62.175V62.1931V62.2101L39.156 62.244L39.161 62.2781V62.2961V62.313L39.167 62.3471V62.3641L39.173 62.3981V62.4151V62.4321L39.18 62.466V62.483L39.187 62.5171V62.5341L39.195 62.5681V62.5851V62.6011V62.619V62.6351V62.6521L39.204 62.6861V62.703V62.72V62.7361V62.7531V62.7701V62.787L39.214 62.8201L39.219 62.8371L39.224 62.8531L39.235 62.8871L39.24 62.9031L39.245 62.9201L39.251 62.9371L39.257 62.953L39.263 62.97L39.269 62.9861L39.275 63.0031L39.281 63.0191L39.287 63.0361L39.293 63.052L39.299 63.0691L39.305 63.0851L39.311 63.1021L39.324 63.134L39.33 63.151L39.336 63.1671L39.343 63.1831L39.35 63.2001L39.357 63.216L39.378 63.2651L39.385 63.2821L39.392 63.298L39.399 63.3141L39.406 63.33L39.413 63.3461L39.42 63.3631L39.435 63.3951L39.443 63.41L39.451 63.4261L39.459 63.4431L39.467 63.4581L39.475 63.4741L39.483 63.4901L39.491 63.5061L39.499 63.522L39.507 63.5381L39.515 63.5531L39.54 63.6021L39.549 63.6181L39.557 63.6331L39.566 63.649L39.575 63.6651L39.584 63.6801L39.593 63.6961L39.602 63.7111L39.611 63.7271L39.62 63.7421L39.629 63.7581L39.638 63.7731L39.647 63.7881L39.656 63.8031L39.666 63.8191L39.675 63.8341L39.684 63.8491L39.694 63.8641L39.704 63.8791L39.714 63.8941L39.724 63.9091L39.734 63.9241L39.744 63.938L39.764 63.968L39.774 63.9821L39.784 63.9971L39.794 64.0121L39.804 64.026L39.814 64.0411L39.835 64.0691L39.846 64.0841L39.856 64.0981L39.877 64.1261L39.887 64.1401L39.898 64.1541L39.909 64.1691L39.92 64.1821L39.931 64.1961L39.953 64.2241L39.964 64.2371L39.975 64.2511L39.986 64.2651L39.998 64.2791L40.009 64.2921L40.02 64.3051L40.031 64.3191L40.042 64.3321L40.053 64.3461L40.064 64.3591L40.076 64.3721L40.087 64.3851L40.099 64.3981L40.111 64.412L40.122 64.4241L40.134 64.4371L40.146 64.4501L40.158 64.4631L40.17 64.4761L40.182 64.4891L40.194 64.5011L40.206 64.5141L40.218 64.5271L40.23 64.539L40.242 64.5511L40.254 64.5641L40.267 64.5771L40.291 64.6011L40.304 64.6131L40.316 64.6251L40.328 64.6371L40.341 64.649L40.354 64.662L40.367 64.673L40.38 64.6851L40.393 64.6971L40.406 64.7091L40.419 64.72L40.432 64.7321L40.445 64.744L40.458 64.7561L40.47 64.7671L40.483 64.7781L40.496 64.7901L40.51 64.8011L40.523 64.813L40.536 64.8241L40.549 64.8351L40.562 64.8461L40.576 64.8571L40.589 64.8681L40.602 64.8791L40.616 64.8901L40.629 64.901L40.643 64.9111L40.657 64.9221L40.671 64.9331L40.684 64.9431L40.698 64.9541L40.712 64.9651L40.725 64.9751L40.739 64.9851L40.753 64.996L40.767 65.0061L40.781 65.0161L40.795 65.0271L40.809 65.037L40.823 65.0471L40.837 65.0571L40.851 65.0661L40.865 65.076L40.88 65.0861L40.894 65.0961L40.923 65.1161L40.937 65.1251L40.952 65.134L40.967 65.1441L40.981 65.1531L40.996 65.1631L41.011 65.1721L41.04 65.19L41.055 65.2001L41.07 65.2091L41.084 65.218L41.099 65.2261L41.159 65.2621L41.174 65.2711L41.189 65.2791L41.204 65.287L41.22 65.2961L41.235 65.3051L41.25 65.313L41.265 65.3211L41.28 65.3291L41.296 65.3371L41.311 65.3461L41.327 65.354L41.343 65.3621L41.358 65.369L41.373 65.3771L41.405 65.3931L41.42 65.4001L41.452 65.4161L41.467 65.423L41.483 65.4311L41.499 65.438L41.514 65.4451L41.53 65.4521L41.546 65.4601L41.562 65.4671L41.578 65.4741L41.594 65.481L41.61 65.4881L41.626 65.494L41.642 65.5011L41.658 65.5081L41.674 65.5151L41.69 65.5211L41.723 65.535L41.739 65.5411L41.755 65.5471L41.771 65.5531L41.788 65.5601L41.82 65.5721L41.837 65.578L41.853 65.5841L41.87 65.5901L41.886 65.5961L41.902 65.6011L41.919 65.6071L41.935 65.6131L41.951 65.6181L41.968 65.6241L41.984 65.6291L42 65.6351L42.033 65.6451L42.05 65.6501L42.067 65.6561L42.1 65.6661L42.117 65.6711H42.133L42.15 65.6761L42.168 65.6811L42.185 65.6861H42.202L42.22 65.6911H42.237L42.253 65.6961H42.27H42.288L42.305 65.701H42.321H42.338H42.356H42.373H42.39H42.407H42.424H42.442H42.459H42.476H42.494H42.511H42.528H42.546H42.564H42.582H42.6L42.634 65.7071H42.652H42.67H42.687H42.705H42.723H42.741H42.759H42.776H42.794H42.83H42.848H42.865H42.882H42.9H42.919H42.936H42.953H42.972H42.99H43.007H43.043H43.061H58.958L47.391 45.8681L39.555 59.4441ZM72.673 2.07805L51.159 39.3481L66.493 65.9091H108.066L107.633 2.07605L72.673 2.07805Z" fill="url(#paint1_linear)"/>
<defs>
<radialGradient id="paint0_radial" cx="0" cy="0" r="1" gradientUnits="userSpaceOnUse" gradientTransform="translate(82.5206 -16.4839) scale(123.106 123.116)">
<stop stop-color="#6BE1FB"/>
<stop offset="1" stop-color="#38BDFA"/>
</radialGradient>
<linearGradient id="paint1_linear" x1="-4.59396" y1="-178.07" x2="-4.48458" y2="-178.07" gradientUnits="userSpaceOnUse">
<stop stop-color="#4AC5FA"/>
<stop offset="1" stop-color="#97E8FC"/>
</linearGradient>
</defs>
</svg>
