<svg width="88" height="131" viewBox="0 0 88 131" fill="none" xmlns="http://www.w3.org/2000/svg">
<path d="M22.008 130.052C27.7559 130.05 33.2678 127.766 37.3322 123.701C41.3966 119.637 43.6809 114.125 43.683 108.377V86.701H22.008C16.2593 86.701 10.7461 88.9846 6.68113 93.0496C2.61618 97.1145 0.33252 102.628 0.33252 108.376C0.33252 114.125 2.61618 119.638 6.68113 123.703C10.7461 127.768 16.2593 130.052 22.008 130.052Z" fill="#0ACF83"/>
<path d="M0.333008 65.026C0.335128 59.2781 2.61942 53.7662 6.68381 49.7018C10.7482 45.6374 16.2601 43.3531 22.008 43.351H43.684V86.702H22.008C16.2599 86.6999 10.7479 84.4155 6.68346 80.3509C2.61904 76.2863 0.334863 70.7741 0.333008 65.026H0.333008Z" fill="#A259FF"/>
<path d="M0.333008 21.675C0.335128 15.9271 2.61942 10.4152 6.68381 6.3508C10.7482 2.28641 16.2601 0.00212032 22.008 0L43.684 0V43.351H22.008C16.2599 43.3489 10.7479 41.0645 6.68346 36.9998C2.61904 32.9352 0.334863 27.4231 0.333008 21.675H0.333008Z" fill="#F24E1E"/>
<path d="M43.6841 0H65.3591C71.1078 0 76.621 2.28366 80.686 6.34861C84.7509 10.4136 87.0346 15.9268 87.0346 21.6755C87.0346 27.4242 84.7509 32.9374 80.686 37.0024C76.621 41.0673 71.1078 43.351 65.3591 43.351H43.6841V0Z" fill="#FF7262"/>
<path d="M87.0351 65.026C87.0351 69.3129 85.7639 73.5035 83.3822 77.0679C81.0006 80.6323 77.6155 83.4104 73.655 85.051C69.6944 86.6916 65.3364 87.1209 61.1319 86.2846C56.9273 85.4484 53.0652 83.3841 50.0339 80.3529C47.0025 77.3217 44.9381 73.4597 44.1017 69.2552C43.2652 65.0507 43.6943 60.6926 45.3347 56.732C46.9751 52.7714 49.753 49.3862 53.3174 47.0044C56.8817 44.6226 61.0722 43.3512 65.3591 43.351C71.1072 43.3529 76.6193 45.637 80.6839 49.7015C84.7485 53.7659 87.0329 59.2779 87.0351 65.026Z" fill="#1ABCFE"/>
</svg>
