<svg xmlns="http://www.w3.org/2000/svg" xmlns:xlink="http://www.w3.org/1999/xlink" width="674" height="660.33" viewBox="0 0 674 660.33">
  <defs>
    <filter id="Rectangle_232" x="336" y="199" width="232" height="232" filterUnits="userSpaceOnUse">
      <feOffset dy="3" input="SourceAlpha"/>
      <feGaussianBlur stdDeviation="3" result="blur"/>
      <feFlood flood-opacity="0.161"/>
      <feComposite operator="in" in2="blur"/>
      <feComposite in="SourceGraphic"/>
    </filter>
    <filter id="Rectangle_233" x="86" y="80" width="232" height="232" filterUnits="userSpaceOnUse">
      <feOffset dy="3" input="SourceAlpha"/>
      <feGaussianBlur stdDeviation="3" result="blur-2"/>
      <feFlood flood-opacity="0.161"/>
      <feComposite operator="in" in2="blur-2"/>
      <feComposite in="SourceGraphic"/>
    </filter>
    <clipPath id="clip-path">
      <path id="Path_1001" data-name="Path 1001" d="M164.244,37.391a3.11,3.11,0,0,0-3.109-3.109H63.727a3.11,3.11,0,0,0-3.109,3.109v97.415a3.11,3.11,0,0,0,3.109,3.109h97.408a3.11,3.11,0,0,0,3.109-3.109Z" transform="translate(0 0)" clip-rule="evenodd"/>
    </clipPath>
    <radialGradient id="radial-gradient" cx="0.764" cy="-0.188" r="1.188" gradientTransform="translate(0)" gradientUnits="objectBoundingBox">
      <stop offset="0" stop-color="#6be1fb"/>
      <stop offset="1" stop-color="#38bdfa"/>
    </radialGradient>
    <linearGradient id="linear-gradient" x1="-0.042" y1="-1.661" x2="-0.041" y2="-1.661" gradientUnits="objectBoundingBox">
      <stop offset="0" stop-color="#4ac5fa"/>
      <stop offset="1" stop-color="#97e8fc"/>
    </linearGradient>
  </defs>
  <g id="ui-main" transform="translate(-968 -1934)">
    <ellipse id="Ellipse_173" data-name="Ellipse 173" cx="337" cy="330" rx="337" ry="330" transform="translate(968 1934)" fill="rgba(48,71,94,0.05)"/>
    <g transform="matrix(1, 0, 0, 1, 968, 1934)" filter="url(#Rectangle_232)">
      <rect id="Rectangle_232-2" data-name="Rectangle 232" width="214" height="214" rx="10" transform="translate(345 205)" fill="#e8e8e8"/>
    </g>
    <g transform="matrix(1, 0, 0, 1, 968, 1934)" filter="url(#Rectangle_233)">
      <rect id="Rectangle_233-2" data-name="Rectangle 233" width="214" height="214" rx="10" transform="translate(95 86)" fill="#e8e8e8"/>
    </g>
    <g id="Payment_Information-amico" data-name="Payment Information-amico" transform="translate(1080.67 2352.976)">
      <g id="freepik--Table--inject-203">
        <g id="freepik--table--inject-203-2" data-name="freepik--table--inject-203">
          <g id="freepik--table--inject-203-3" data-name="freepik--table--inject-203" transform="translate(0 12.252)">
            <path id="Path_615" data-name="Path 615" d="M318.56,223.54a1,1,0,0,1,.6-.83,3.18,3.18,0,0,1,2.88,0,1,1,0,0,1,.59.83l-7.24,42.77h0a.75.75,0,0,1-.42.58,2.29,2.29,0,0,1-2,0,.75.75,0,0,1-.42-.58h0Z" transform="translate(-310.32 -188.395)" fill="#455a64"/>
            <path id="Path_616" data-name="Path 616" d="M374.44,223.54a1,1,0,0,0-.6-.83,3.18,3.18,0,0,0-2.88,0,1,1,0,0,0-.59.83l7.24,42.77h0a.75.75,0,0,0,.42.58,2.29,2.29,0,0,0,2,0,.75.75,0,0,0,.42-.58h0Z" transform="translate(-310.32 -188.395)" fill="#455a64"/>
            <path id="Path_617" data-name="Path 617" d="M348.78,226.78a1,1,0,0,0-.59-.83,3.18,3.18,0,0,0-2.88,0,1,1,0,0,0-.6.83l.6,50.89h0a.75.75,0,0,0,.42.57,2.27,2.27,0,0,0,2,0,.71.71,0,0,0,.42-.57h0Z" transform="translate(-310.32 -188.395)" fill="#455a64"/>
            <path id="Path_618" data-name="Path 618" d="M383.22,209.45h0c0-5.39-3.52-10.78-10.65-14.89-14.24-8.22-37.33-8.22-51.57,0-7.12,4.11-10.65,9.5-10.65,14.89h0v2.89h0c.08,5.32,3.65,10.62,10.68,14.68,14.24,8.22,37.33,8.22,51.57,0,7-4.06,10.6-9.36,10.69-14.68h0Z" transform="translate(-310.32 -188.395)" fill="#30475e"/>
            <path id="Path_619" data-name="Path 619" d="M383.22,209.45h0c0-5.39-3.52-10.78-10.65-14.89-14.24-8.22-37.33-8.22-51.57,0-7.12,4.11-10.65,9.5-10.65,14.89h0v2.89h0c.08,5.32,3.65,10.62,10.68,14.68,14.24,8.22,37.33,8.22,51.57,0,7-4.06,10.6-9.36,10.69-14.68h0Z" transform="translate(-310.32 -188.395)" fill="#fff" opacity="0.4"/>
            <path id="Path_620" data-name="Path 620" d="M321,194.56c-14.24,8.22-14.24,21.56,0,29.78s37.33,8.22,51.57,0,14.25-21.56,0-29.78S335.2,186.34,321,194.56Z" transform="translate(-310.32 -188.395)" fill="#30475e"/>
            <path id="Path_621" data-name="Path 621" d="M321,194.56c-14.24,8.22-14.24,21.56,0,29.78s37.33,8.22,51.57,0,14.25-21.56,0-29.78S335.2,186.34,321,194.56Z" transform="translate(-310.32 -188.395)" fill="#fff" opacity="0.6"/>
          </g>
          <g id="freepik--Pot--inject-203" transform="translate(24.551)">
            <g id="Group_40" data-name="Group 40" transform="translate(0 24.379)" opacity="0.05">
              <path id="Path_622" data-name="Path 622" d="M354.74,202.49c4.54,2.63,4.54,6.88,0,9.5s-11.91,2.62-16.46,0-4.54-6.87,0-9.5S350.19,199.87,354.74,202.49Z" transform="translate(-334.871 -200.521)"/>
            </g>
            <path id="Path_623" data-name="Path 623" d="M339.27,207.83c-3.95-4-6.28-14.12-2.42-17.32h19.64c3.86,3.2,1.53,13.27-2.42,17.31l-.11.12-.13.13-.36.32-.1.07-.29.23a4,4,0,0,1-.52.32,13,13,0,0,1-11.78,0h0a4.127,4.127,0,0,1-.52-.33,2.774,2.774,0,0,1-.27-.21l-.12-.09c-.12-.1-.24-.2-.35-.31l-.15-.15Z" transform="translate(-334.871 -176.143)" fill="#ebebeb"/>
            <path id="Path_624" data-name="Path 624" d="M354.78,189.22c4.48,2.59,4.48,6.78,0,9.37s-11.74,2.58-16.22,0-4.48-6.78,0-9.37S350.3,186.63,354.78,189.22Z" transform="translate(-334.871 -176.143)" fill="#fafafa"/>
            <path id="Path_625" data-name="Path 625" d="M351.61,191.05c2.72,1.58,2.72,4.13,0,5.7a10.87,10.87,0,0,1-9.87,0c-2.73-1.57-2.73-4.12,0-5.7a10.93,10.93,0,0,1,9.87,0Z" transform="translate(-334.871 -176.143)" fill="#ebebeb"/>
            <path id="Path_626" data-name="Path 626" d="M341.74,193.76a10.87,10.87,0,0,1,9.87,0,4.58,4.58,0,0,1,1.63,1.49,4.6,4.6,0,0,1-1.63,1.5,10.87,10.87,0,0,1-9.87,0,4.56,4.56,0,0,1-1.64-1.5A4.54,4.54,0,0,1,341.74,193.76Z" transform="translate(-334.871 -176.143)" fill="#e0e0e0"/>
            <path id="Path_627" data-name="Path 627" d="M351,195.25a22.47,22.47,0,0,0,3.57-4.74c1.64-2.92,1.95-6.82,1.1-7.3s-4.33,3.41-4.33,3.41a21.339,21.339,0,0,0,.37-5c-.15-2.59-.78-4.95-1.52-5.43s-2.41,2.8-3.12,5.17-1.14,4.33-1.14,4.33a37,37,0,0,0-1.28-5.46c-.87-2.47-1.65-3-2.26-2.78s-1,1.39-1.19,4.67a33.07,33.07,0,0,0,.15,4.7s-1.23-1.34-2.58-2.65-2.13-1.63-2.56-1.35-.54,2.5,1.77,6.68a23.07,23.07,0,0,0,4.36,5.73S345.54,197.32,351,195.25Z" transform="translate(-334.871 -176.143)" fill="#30475e"/>
          </g>
        </g>
      </g>
      <g id="freepik--Puff--inject-203" transform="translate(20.102 39.182)">
        <g id="freepik--bean-bag--inject-203">
          <path id="Path_897" data-name="Path 897" d="M452.24,222.77c15.29,8.83,37.41,29.7,37.41,67.36s-17.8,65.67-51.88,78.18c-18.23,6.69-47.46,7-66.24.33-19.14-9.79-32-19.87-39.06-38.16-7.24-21.22,5.71-43.44,23.3-56.15s15.51-27.17,28-42.19c6.69-8.08,16.54-15,28.56-16.33C425.4,214.35,440.61,216.05,452.24,222.77Z" transform="translate(-330.422 -215.325)" fill="#30475e"/>
          <path id="Path_898" data-name="Path 898" d="M452.24,222.77c15.29,8.83,37.41,29.7,37.41,67.36s-17.8,65.67-51.88,78.18c-18.23,6.69-47.46,7-66.24.33-19.14-9.79-32-19.87-39.06-38.16-7.24-21.22,5.71-43.44,23.3-56.15s15.51-27.17,28-42.19c6.69-8.08,16.54-15,28.56-16.33C425.4,214.35,440.61,216.05,452.24,222.77Z" transform="translate(-330.422 -215.325)" fill="#fff" opacity="0.8"/>
          <path id="Path_899" data-name="Path 899" d="M379.71,371c21.83,2.56,44.65-2.81,62.56-15,27.43-18.66,39.3-48.24,33.43-83.29-5.19-31-20.66-48-36.2-55.06a55,55,0,0,1,10,3.7c12.58,9.18,23.77,25.5,28.05,51,6,35.82-6.15,66.06-34.23,85.16a94.4,94.4,0,0,1-46.74,15.75A104.894,104.894,0,0,1,379.71,371Z" transform="translate(-330.422 -215.325)" fill="#30475e" opacity="0.15"/>
        </g>
      </g>
      <g id="freepik--Character--inject-203" transform="translate(1.34 1.929)">
        <path id="Path_900" data-name="Path 900" d="M366.47,285.73c11.34-6.27,13.54-13.13,23.39-38.7s27.79-23.63,27.79-23.63,26.36.89,32.66,19.68c4.34,13,4.26,38.54.15,52.33-2.46,8.26-5.82,12.17-5.82,12.17,12.95-2.55,23.28,6.19,23.28,6.19s-9.72-3.63-27.66,3.57c-10.63,4.26-19.95,9.68-31.18,15.3-8.95,4.47-14.51,8.24-15.45,10.21-3.59,7.54-5.06,18.35-9.6,29a64.44,64.44,0,0,1-13.14-3.54c-11.42-5.89-20.58-11.92-27.57-19.8-.22-2.55-.06-5.17-.13-7.72-.25-9.41-.37-18.84.13-28.24C344.47,290.94,355.13,292,366.47,285.73Z" transform="translate(-311.66 -178.072)" fill="#30475e" opacity="0.15"/>
        <g id="freepik--character--inject-203-2" data-name="freepik--character--inject-203">
          <path id="Path_901" data-name="Path 901" d="M364.59,369.76l-.4,19.56a7.6,7.6,0,0,0,5.93,6.2c5.25,1.08,6-5.48,6-5.48l4.13-23Z" transform="translate(-311.66 -178.072)" fill="#ffa8a7"/>
          <path id="Path_902" data-name="Path 902" d="M377.46,400.11a6.36,6.36,0,0,1-.4,2.24c-.4.9-2.82,2-4.15,2.65a7.52,7.52,0,0,0-4.22,4,15.08,15.08,0,0,1-7.09,6.88A21.51,21.51,0,0,1,348.82,417c-5.33-1-5.71-4.2-5.71-4.2s-.24-3,1.1-3.41S377.46,400.11,377.46,400.11Z" transform="translate(-311.66 -178.072)" fill="#263238"/>
          <path id="Path_903" data-name="Path 903" d="M376.38,388.61c.4.07.45.53.51,1.89s.56,3.07.71,4.37a15.67,15.67,0,0,1-.11,5.63c-1.52,2.55-4.64,2.11-7.62,4.78-2.74,2.45-5.44,8.27-12.45,9.55s-12.29-1-13.55-3-.05-3.86,4.47-6.21c4.8-2.49,11.18-10.05,11.18-10.05.77-1,1.55-2,2.27-3.14a8.15,8.15,0,0,0,.8-1.9l.75-2.23c.11-.34.27-.73.61-.83a1.17,1.17,0,0,1,.89.21,26.159,26.159,0,0,0,6.34,2.47,1.24,1.24,0,0,1,.69.35,1.29,1.29,0,0,1,0,1.06,4.9,4.9,0,0,0-.09,1.43c0,.21.09.47.3.51s.36-.17.46-.35l1-1.78a2.9,2.9,0,0,1,1.54-1.32,7,7,0,0,0,1.09-.64Z" transform="translate(-311.66 -178.072)" fill="#455a64"/>
          <path id="Path_904" data-name="Path 904" d="M362,413.23a8.89,8.89,0,0,0-5.06-7.67c-5.23-2.77-8.45-1.09-10.09.05-1.94,1.35-4.73,4.19-3.1,6.32,1.77,2.29,4.64,3.41,10,3.56S362,413.23,362,413.23Z" transform="translate(-311.66 -178.072)" fill="#fafafa"/>
          <path id="Path_905" data-name="Path 905" d="M369.45,397a.62.62,0,0,1-.48-.26c-.58-.85-4.37-4-8.09-3.05-.18-.43.14-.87.91-1.31,3.89-.29,7.49,2.7,8.19,3.72a.56.56,0,0,1-.17.8.68.68,0,0,1-.36.1Z" transform="translate(-311.66 -178.072)" fill="#fafafa"/>
          <path id="Path_906" data-name="Path 906" d="M358.71,396.45a1.83,1.83,0,0,1,1.07-1.27,11.05,11.05,0,0,1,7.72,3.75.57.57,0,0,1-.17.8.6.6,0,0,1-.37.09.57.57,0,0,1-.47-.25C365.92,398.75,362.32,395.74,358.71,396.45Z" transform="translate(-311.66 -178.072)" fill="#fafafa"/>
          <path id="Path_907" data-name="Path 907" d="M352.81,402.36a3.34,3.34,0,0,1,1.68-1.53,10.8,10.8,0,0,1,8,3.73.58.58,0,0,1-.17.81.63.63,0,0,1-.84-.17C360.9,404.31,356.71,400.83,352.81,402.36Z" transform="translate(-311.66 -178.072)" fill="#fafafa"/>
          <path id="Path_908" data-name="Path 908" d="M364.48,402.64a.64.64,0,0,1-.48-.25c-.58-.84-4.29-3.95-8-3.08a2.11,2.11,0,0,1,1.3-1.31,11,11,0,0,1,7.71,3.75.56.56,0,0,1-.17.8A.59.59,0,0,1,364.48,402.64Z" transform="translate(-311.66 -178.072)" fill="#fafafa"/>
          <path id="Path_909" data-name="Path 909" d="M335.84,353.05l-1.64,19.5a7.59,7.59,0,0,0,5.52,6.56c5.17,1.42,6.34-5.09,6.34-5.09l5.59-22.69Z" transform="translate(-311.66 -178.072)" fill="#ffa8a7"/>
          <path id="Path_910" data-name="Path 910" d="M346.75,384.16a6.52,6.52,0,0,1-.54,2.21c-.46.87-2.95,1.84-4.31,2.38a7.54,7.54,0,0,0-4.47,3.71,15.07,15.07,0,0,1-7.51,6.41,21.54,21.54,0,0,1-12.83.3c-5.24-1.38-5.43-4.55-5.43-4.55s0-3,1.32-3.33S346.75,384.16,346.75,384.16Z" transform="translate(-311.66 -178.072)" fill="#263238"/>
          <path id="Path_911" data-name="Path 911" d="M346.4,372.62c.41.09.42.55.39,1.91s.37,3.1.44,4.41a15.679,15.679,0,0,1-.47,5.62c-1.69,2.44-4.77,1.8-7.91,4.28-2.89,2.27-6,7.91-13,8.74s-12.19-1.81-13.32-3.9.19-3.86,4.85-5.91c5-2.19,11.8-9.32,11.8-9.32.84-1,1.68-1.94,2.46-3a8,8,0,0,0,.92-1.85c.3-.72.6-1.45.89-2.18.14-.33.32-.7.67-.79a1.21,1.21,0,0,1,.87.28,26.86,26.86,0,0,0,6.17,2.87,1.13,1.13,0,0,1,.67.38,1.31,1.31,0,0,1,0,1.06,4.94,4.94,0,0,0-.18,1.42c0,.22.06.48.27.53s.37-.15.48-.32c.37-.57.74-1.14,1.12-1.71a2.92,2.92,0,0,1,1.62-1.22,6,6,0,0,0,1.13-.57Z" transform="translate(-311.66 -178.072)" fill="#455a64"/>
          <path id="Path_912" data-name="Path 912" d="M330.46,396.27a8.88,8.88,0,0,0-4.56-8c-5-3.11-8.37-1.63-10.07-.6-2,1.22-5,3.88-3.5,6.1,1.62,2.4,4.41,3.71,9.77,4.2S330.46,396.27,330.46,396.27Z" transform="translate(-311.66 -178.072)" fill="#fafafa"/>
          <path id="Path_913" data-name="Path 913" d="M339,380.55a.61.61,0,0,1-.45-.28c-.53-.88-4.11-4.3-7.88-3.56-.16-.44.19-.86,1-1.25,3.91,0,7.31,3.17,7.95,4.23a.58.58,0,0,1-.22.79.63.63,0,0,1-.4.07Z" transform="translate(-311.66 -178.072)" fill="#fafafa"/>
          <path id="Path_914" data-name="Path 914" d="M328.28,379.32a1.78,1.78,0,0,1,1.15-1.2,11.06,11.06,0,0,1,7.46,4.23.58.58,0,0,1-.22.79.72.72,0,0,1-.38.07.6.6,0,0,1-.45-.29C335.32,382.07,331.93,378.83,328.28,379.32Z" transform="translate(-311.66 -178.072)" fill="#fafafa"/>
          <path id="Path_915" data-name="Path 915" d="M322,384.84a3.36,3.36,0,0,1,1.78-1.42c3.83.05,7.15,3.19,7.78,4.23a.56.56,0,0,1-.22.79.6.6,0,0,1-.82-.21C330,387.3,326,383.55,322,384.84Z" transform="translate(-311.66 -178.072)" fill="#fafafa"/>
          <path id="Path_916" data-name="Path 916" d="M333.63,385.86a.6.6,0,0,1-.45-.29c-.53-.86-4-4.2-7.76-3.57a2,2,0,0,1,1.35-1.23,11.1,11.1,0,0,1,7.46,4.23.58.58,0,0,1-.22.79.63.63,0,0,1-.38.07Z" transform="translate(-311.66 -178.072)" fill="#fafafa"/>
          <path id="Path_917" data-name="Path 917" d="M413.85,263.47c1.14,7.91,1.42,12.37-1.61,20.21s-9.88,20.25-21.19,26.09c-9.35,4.84-23.46,9.54-26.18,10.74-3.47,1.52-4.12,2.71-4.81,8.43-1,8.33-2.83,12-6.36,21.34-1.6,4.22-5.74,16-5.74,16-3.69.84-9.65-.59-13.23-2.74,0,0,4.09-48.22,6.73-54.87s25.26-16.8,32.94-20.89,12-6.66,20.77-12.2Z" transform="translate(-311.66 -178.072)" fill="#37474f"/>
          <path id="Path_918" data-name="Path 918" d="M364.87,320.51c-3.47,1.52-4.12,2.71-4.81,8.43a54.489,54.489,0,0,1-3.69,14.43c.56-2.15,1.83-9.68,2-11,.87-6.17.69-10.32,1.56-12.33s8.9-5.79,8.9-5.79l20-15.83c-3.42-4.23-2.23-10.84-2.23-10.84a15.31,15.31,0,0,0,7.1,11.89c-3.82,2.77-19.94,17.07-21.15,18.15C368.86,319,366,320,364.87,320.51Z" transform="translate(-311.66 -178.072)" fill="#263238"/>
          <path id="Path_919" data-name="Path 919" d="M393.63,287.15a61.439,61.439,0,0,0,5.33,7.2l-1.62,1.28a22.329,22.329,0,0,1-3.71-8.48Z" transform="translate(-311.66 -178.072)" fill="#37474f"/>
          <path id="Path_920" data-name="Path 920" d="M436.73,293.29c-1.55,9.83-4.34,14.71-7.16,17.66-4.27,4.45-8.07,7.13-19.37,13-9.36,4.84-18.43,10.81-21,12.3-2.94,1.7-3.74,3.09-3.94,6.92-.65,12.87-4.73,27.28-7,39.48,0,0-8.81,3.3-14-2,0,0-1.62-51.13,1-57.78S399,294.35,399,294.35s-2.17-10.86-3.79-18.77Z" transform="translate(-311.66 -178.072)" fill="#37474f"/>
          <path id="Path_921" data-name="Path 921" d="M407.53,226c-4.62-.37-9.93.28-12.66,3.8-3.64,4.67-11,23.64-13.39,33.1-.65,2.58,11.34,8.48,11.34,8.48l7.55-17Z" transform="translate(-311.66 -178.072)" fill="#f28f8f"/>
          <path id="Path_922" data-name="Path 922" d="M406.75,225.85c-5.21-.34-8.85.62-11.25,2.89s-5,8.08-6.39,11.44-4.32,11.68-4.32,11.68,3.67,4.92,13.64,6.4C401.37,248.64,406.75,225.85,406.75,225.85Z" transform="translate(-311.66 -178.072)" fill="#30475e"/>
          <path id="Path_923" data-name="Path 923" d="M442.94,235.37c.44,4,.34,34.44-6.93,61.77-12.67,6-43.67-4.36-46.32-19.68,0,0,4.19-6.34,5.73-11,.35-7.77,1.44-20.26,1.95-24.82,1-9,5-15,9.38-15.82l14.59.21,8.16,1.65S442.66,232.87,442.94,235.37Z" transform="translate(-311.66 -178.072)" fill="#455a64"/>
          <path id="Path_924" data-name="Path 924" d="M431.53,189.43a7.09,7.09,0,0,1,5.32,4c1.08,2.29.21,6.83-1.22,12.82A54.5,54.5,0,0,1,432,217.48a4.55,4.55,0,0,1-2.62,2.14l.11-7.1.22-4.94s-4.45,1.38-5.59-5.82c-.72-4.54-.12-6-.12-6Z" transform="translate(-311.66 -178.072)" fill="#263238"/>
          <path id="Path_925" data-name="Path 925" d="M426.14,197.19a13.24,13.24,0,1,1-3.92-9.355,13.24,13.24,0,0,1,3.92,9.355Z" transform="translate(-311.66 -178.072)" fill="#263238"/>
          <path id="Path_926" data-name="Path 926" d="M428.05,207c1.34.39,2-2,3-3a4.23,4.23,0,0,1,6.39,1c2.27,3.13-.29,8.25-2.72,9.4-3.57,1.69-5.2-1.91-5.2-1.91l-.24,16s-.92,3-7,5.22c-4.77,1.72-11.8-1-7.39-5.63v-4.86a20.66,20.66,0,0,1-6.93.17c-2.38-.43-4.23-2.29-5.35-6-2.17-7.25-1.72-16.83,1-25.49,3.63-2.85,12.75-1,20.44,3.81C424.28,205.65,426.53,206.6,428.05,207Z" transform="translate(-311.66 -178.072)" fill="#ffa8a7"/>
          <path id="Path_927" data-name="Path 927" d="M417,213.75l-6.33,1.54a3.13,3.13,0,0,0,3.82,2.45A3.43,3.43,0,0,0,417,213.75Z" transform="translate(-311.66 -178.072)" fill="#b16668"/>
          <path id="Path_928" data-name="Path 928" d="M416.72,215.91a2.72,2.72,0,0,0-4.46,1.53,3.12,3.12,0,0,0,2.24.3,3.39,3.39,0,0,0,2.22-1.83Z" transform="translate(-311.66 -178.072)" fill="#f28f8f"/>
          <path id="Path_929" data-name="Path 929" d="M400.75,183.21a.59.59,0,0,1,.47-.37.7.7,0,0,1,.45.19,21,21,0,0,0,2.91,1.93,10.55,10.55,0,0,1-.08-4c.14-.8.35-2.66,1.34-2.87.59-.12,1.11.37,1.56.78,4,3.69,9.18,1.93,14,2,4,.1,8.86,1.69,10.7,5.58.84,1.77,1,3.65-.63,4.9a40.451,40.451,0,0,1-7.46,4.33c-4.38,1.32-15.8,3-21.77-4.43a11.73,11.73,0,0,1-2-4.84,6,6,0,0,1,.46-3.24S400.74,183.22,400.75,183.21Z" transform="translate(-311.66 -178.072)" fill="#263238"/>
          <path id="Path_930" data-name="Path 930" d="M414.81,223.28s6-1.56,8.42-3.14a11.39,11.39,0,0,0,3.79-4.07s-.59,3.41-2.27,5.21c-2.95,3.15-9.94,3.93-9.94,3.93Z" transform="translate(-311.66 -178.072)" fill="#f28f8f"/>
          <path id="Path_931" data-name="Path 931" d="M414.94,205.9a1.46,1.46,0,1,0,1.45-1.52A1.49,1.49,0,0,0,414.94,205.9Z" transform="translate(-311.66 -178.072)" fill="#263238"/>
          <path id="Path_932" data-name="Path 932" d="M416.26,199.64l3.19,1.58a1.87,1.87,0,0,0-.83-2.45,1.75,1.75,0,0,0-2.36.87Z" transform="translate(-311.66 -178.072)" fill="#263238"/>
          <path id="Path_933" data-name="Path 933" d="M403,200.3l3.43-1a1.72,1.72,0,0,0-2.17-1.24A1.89,1.89,0,0,0,403,200.3Z" transform="translate(-311.66 -178.072)" fill="#263238"/>
          <path id="Path_934" data-name="Path 934" d="M403.93,205a1.46,1.46,0,1,0,1.45-1.52,1.49,1.49,0,0,0-1.45,1.52Z" transform="translate(-311.66 -178.072)" fill="#263238"/>
          <path id="Path_935" data-name="Path 935" d="M410.85,211.97l-4.82-1.54,5.01-8.02Z" transform="translate(-311.66 -178.072)" fill="#f28f8f"/>
          <path id="Path_936" data-name="Path 936" d="M374.76,254.26h0l1-.81h0a1.14,1.14,0,0,1,1-.07l10.71,3.44a4,4,0,0,1,2.34,2.39l6.79,22.87a1,1,0,0,1-.2,1.14h0l-1.07.85h0a1.12,1.12,0,0,1-1,.08l-10.72-3.44a4,4,0,0,1-2.33-2.39c-1.33-4.49-5.46-18.37-6.79-22.87C374.34,254.88,374.45,254.47,374.76,254.26Z" transform="translate(-311.66 -178.072)" fill="#455a64"/>
          <path id="Path_937" data-name="Path 937" d="M387.63,258.33a3.84,3.84,0,0,1,1.19,1.71l6.79,22.86a1.08,1.08,0,0,1-.16,1.13l1-.79h0a1,1,0,0,0,.2-1.15l-6.79-22.87a4,4,0,0,0-1.09-1.62Z" transform="translate(-311.66 -178.072)" fill="#263238"/>
          <path id="Path_938" data-name="Path 938" d="M395.61,282.91,388.82,260a4,4,0,0,0-2.34-2.39l-10.71-3.44c-1-.32-1.56.23-1.26,1.23,1.33,4.5,5.46,18.38,6.79,22.87a4,4,0,0,0,2.33,2.39l10.72,3.44C395.34,284.46,395.9,283.91,395.61,282.91Z" transform="translate(-311.66 -178.072)" fill="#37474f"/>
          <path id="Path_939" data-name="Path 939" d="M376.71,262.85c-1.89-.54-3,1.48-2.86,5s2.27,10,7.7,8.37c2.11-.65,3.61-4.18,1.38-5.73a36.929,36.929,0,0,1-5.18-4.11Z" transform="translate(-311.66 -178.072)" fill="#f28f8f"/>
          <path id="Path_940" data-name="Path 940" d="M443.7,284a96.6,96.6,0,0,0,7.24-26.56c1.73-14.85.73-20.76-9.88-24.06-7.72,6.88-5.32,23.53-5.32,23.53-1.32,6.22-3.52,16.8-5,20.74-10,0-28.29-5.55-30.34-6.64a12.21,12.21,0,0,1-2.9-3.1,7.88,7.88,0,0,0-2.74-2.49c-1.4-.73-2.55-1.16-3.55-1.7l1.41,4.78c-.11.27-.74.34-1,.44a17.32,17.32,0,0,1-6.59.84c-4.65-.33-9-3.69-8.1.44.37,1.64,1.06,4.72,3.53,6.79s11.53,3,14.08,4.14c0,0,23.32,9.76,32.87,10.88C437.57,293.17,439.45,292.8,443.7,284Z" transform="translate(-311.66 -178.072)" fill="#ffa8a7"/>
          <path id="Path_941" data-name="Path 941" d="M440.1,232.73c5.15,1.48,9.52,2.74,11.44,10.08s-1.91,25.12-1.91,25.12-9.62,2.09-16.21-2l1.5-9C434.4,246.4,435.42,237.78,440.1,232.73Z" transform="translate(-311.66 -178.072)" fill="#30475e"/>
        </g>
      </g>
    </g>
    <g id="figma-seeklogo.com" transform="translate(1121.333 2062)">
      <path id="path0_fill" d="M21.675,243.351a21.683,21.683,0,0,0,21.675-21.675V200H21.675a21.675,21.675,0,0,0,0,43.351Z" transform="translate(0 -113.299)" fill="#0acf83"/>
      <path id="path1_fill" d="M0,121.675A21.683,21.683,0,0,1,21.675,100H43.351v43.351H21.675A21.683,21.683,0,0,1,0,121.675Z" transform="translate(0 -56.649)" fill="#a259ff"/>
      <path id="path1_fill_1_" d="M0,21.675A21.683,21.683,0,0,1,21.675,0H43.351V43.351H21.675A21.683,21.683,0,0,1,0,21.675Z" fill="#f24e1e"/>
      <path id="path2_fill" d="M100,0h21.675a21.675,21.675,0,0,1,0,43.351H100Z" transform="translate(-56.649)" fill="#ff7262"/>
      <path id="path3_fill" d="M143.351,121.675A21.675,21.675,0,1,1,121.675,100,21.683,21.683,0,0,1,143.351,121.675Z" transform="translate(-56.649 -56.649)" fill="#1abcfe"/>
    </g>
    <g id="Group_41" data-name="Group 41" transform="translate(1316.616 2159.718)" clip-path="url(#clip-path)">
      <path id="Path_996" data-name="Path 996" d="M164.244,37.391a3.11,3.11,0,0,0-3.109-3.109H63.727a3.11,3.11,0,0,0-3.109,3.109v97.415a3.11,3.11,0,0,0,3.109,3.109h97.408a3.11,3.11,0,0,0,3.109-3.109Z" transform="translate(0 0)" fill="#1b72be" fill-rule="evenodd"/>
      <path id="Path_997" data-name="Path 997" d="M164.244,37.391a3.11,3.11,0,0,0-3.109-3.109h-58.03L60.619,107.876v26.93a3.11,3.11,0,0,0,3.109,3.109h97.408a3.11,3.11,0,0,0,3.109-3.109Z" transform="translate(0 0)" fill="#0568aa" fill-rule="evenodd"/>
      <path id="Path_998" data-name="Path 998" d="M108.53,137.915H101.3L82.636,100.384l36.377-66.1h5.854L86.784,100.248l21.746,37.668Zm19.577,0H110.084L88.848,101.13h75.4L164.244,108ZM110.194,34.282h-6.052L60.619,109.671v10.484Zm10.513,65.492h-20.5A6.672,6.672,0,0,1,94.4,89.754L104.66,71.977Zm43.537,0H122.261L105.437,70.63l20.984-36.348,7.6,0L122.981,71.858l5.126,10.531L164.244,96.6Z" transform="translate(0 0)" fill="#074f7f" fill-rule="evenodd"/>
      <path id="Path_999" data-name="Path 999" d="M110.013,250.151H57.407L36.949,214.712h73.064Zm-57.268,0H6.388V224.6l45.077-78.082H69.081L31,212.484Zm11.4-39.48H46.337a5.549,5.549,0,0,1-4.82-8.331l8.911-15.435Zm45.864,0h-41.2l-16.054-27.8,20.984-36.348h36.269Z" transform="translate(54.231 -112.237)" fill-rule="evenodd" fill="url(#radial-gradient)"/>
      <path id="Path_1000" data-name="Path 1000" d="M113.056,252.47H59.147L37.588,215.126h75.431ZM31.638,212.9,54.484,252.47H3.846l-.17-21.655,49.678-86.052H70.971Zm8.1,3.472,20.123,34.858h51.947l-.034-34.858Zm14.331-70.362L4.923,231.144l.157,20.083H52.33L30.2,212.9l38.616-66.89Zm10.715,65.077H46.652l-.023,0h-.023l-.023,0h-.023l-.023,0-.023,0-.023,0-.023,0-.023,0-.023,0-.023,0-.023,0-.023,0-.023,0-.023,0-.023,0-.023,0-.023,0-.023,0-.023,0-.023,0-.023,0-.023,0-.023,0-.023,0-.023,0-.023,0-.023,0-.022,0-.022,0-.022,0-.022,0-.022,0-.022-.005-.022,0-.022-.005-.022,0-.022-.005-.022-.005-.022-.005-.022,0-.022-.006-.022-.005-.022-.005-.022-.005-.022-.006-.022-.005-.022-.005-.022-.006-.022-.006-.022-.006-.022-.006-.022-.006-.022-.006-.022-.006-.022-.006-.022-.006-.022-.007-.022-.006-.022-.007-.022-.007-.022-.006-.022-.007-.021-.007L45.2,210.8l-.021-.007-.021-.008-.021-.007-.021-.007-.021-.007-.021-.008-.021-.008-.021-.007-.021-.008-.021-.008-.021-.008-.021-.008-.021-.008-.021-.008-.021-.008-.021-.009-.021-.008-.021-.009-.021-.008-.021-.009-.021-.009-.021-.009-.021-.008-.021-.01-.021-.009-.021-.009-.02-.009-.02-.009-.02-.01-.02-.009-.02-.01-.02-.009-.02-.01-.02-.01-.02-.01-.02-.01-.02-.01-.02-.01-.02-.01-.02-.01-.02-.011-.02-.01-.02-.011-.02-.01-.02-.011-.02-.011-.02-.011-.02-.011-.02-.01-.019-.011-.019-.012-.019-.011-.019-.011-.019-.012-.019-.011-.019-.011-.019-.012-.019-.012L44,210.231l-.019-.011-.019-.012-.019-.012-.019-.012-.019-.012-.019-.013-.019-.012-.019-.012-.019-.013-.019-.012-.019-.013-.018-.013-.018-.012-.018-.013-.018-.013-.018-.013-.018-.013L43.666,210l-.018-.013-.018-.014-.018-.013-.018-.013-.018-.014-.018-.013-.018-.014-.018-.014-.018-.014-.018-.013-.018-.014-.018-.014-.017-.015-.017-.014L43.4,209.8l-.017-.014-.017-.015-.017-.014-.017-.014-.017-.015-.017-.015-.017-.014-.017-.015-.017-.015-.017-.015-.017-.015-.017-.015-.017-.015-.017-.015-.016-.016-.016-.015-.016-.016-.016-.015-.016-.016-.016-.015-.016-.016-.016-.016-.016-.016L43,209.429l-.016-.016-.016-.016-.016-.016-.016-.016-.016-.016-.016-.017-.015-.016-.015-.016-.015-.017-.015-.017-.015-.016-.015-.017-.015-.017-.015-.017-.015-.017-.015-.017-.015-.017-.015-.017-.015-.017-.015-.017-.015-.018-.015-.017-.014-.018-.014-.017L42.624,209l-.014-.018-.014-.017-.014-.018-.014-.018-.014-.018-.014-.018-.014-.018-.014-.018-.014-.018-.014-.018-.014-.019-.013-.018-.013-.019-.013-.018-.013-.019-.013-.019-.013-.018-.013-.019-.013-.019-.013-.019-.013-.019-.013-.019-.013-.019-.013-.019-.012-.019-.012-.02-.012-.019-.012-.019-.012-.02-.012-.019-.012-.02-.012-.02-.012-.019-.012-.02-.012-.02-.012-.02-.012-.02-.012-.02-.011-.02-.011-.02-.011-.02-.011-.02-.011-.02-.011-.02-.011-.021-.011-.02-.011-.02-.011-.021-.011-.02-.01-.02-.01-.021-.01-.02-.01-.021-.01-.02-.01-.021-.01-.021-.01-.02-.01-.021-.01-.021-.01-.02-.009-.021-.009-.021-.009-.02-.009-.021-.009-.021-.009-.021-.009-.021-.009-.021-.009-.021-.009-.021-.008-.021-.008-.021-.008-.021-.008-.021-.008-.021-.008-.021-.008-.022-.008-.021-.008-.021-.008-.021-.008-.021-.008-.022-.007-.021-.007-.021-.007-.022-.007-.021-.007-.022-.007-.021-.007-.021-.007-.022-.007-.021-.007-.022-.006-.022-.006-.021-.006-.022-.006-.021-.006-.022-.006-.021-.006-.022-.006-.022-.006-.021-.006-.022-.006-.022-.005-.022-.005-.021-.005-.022-.005-.022-.005-.022-.005-.021,0-.022,0-.022,0-.022,0-.022,0-.022,0-.022,0-.022,0-.022,0-.022,0-.021,0-.022,0-.022,0-.022,0-.023,0-.021,0-.023,0-.022,0-.022,0-.022,0-.022,0-.022,0-.022,0-.022,0-.022,0-.022,0-.022,0-.023,0-.022,0-.022,0-.022,0-.022,0-.022,0-.023,0-.022,0-.022,0-.022,0-.022,0-.023,0-.022v-.72l0-.022,0-.022,0-.022,0-.022,0-.022,0-.023,0-.022,0-.022,0-.022,0-.022,0-.023,0-.022,0-.022,0-.022,0-.022,0-.022,0-.022,0-.022,0-.023,0-.022,0-.022,0-.022,0-.022,0-.022,0-.022,0-.022,0-.022,0-.022,0-.022,0-.022,0-.022,0-.022,0-.022,0-.021,0-.022,0-.022,0-.022,0-.022,0-.022.005-.022.005-.021.005-.022.005-.022.005-.022.005-.021.006-.022.006-.022.006-.022.006-.021.006-.022.006-.022.006-.021.006-.022.006-.021.006-.022.006-.021.007-.022.007-.021.007-.022.007-.021.007-.022.007-.021.007-.022.007-.021.007-.021.007-.021.008-.022.008-.021.008-.021.008-.021.008-.022.008-.021.008-.021.008-.021.008-.021.008-.021.008-.021.008-.021.009-.021.009-.021.009-.021.009-.021.009-.021.009-.021.009-.021.009-.021.009-.02.009-.021.01-.021.01-.02.01-.021.01-.021.01-.02.01-.021.01-.021.01-.02.01-.02.01-.021.01-.02.011-.021.011-.02.011-.02.011-.02.011-.021.011-.02.011-.02.011-.02.011-.02.011-.02.011-.021.012-.019.012-.02,8.911-15.435Zm48.206,0H69.451L53.4,183.28l22.236-38.516h36.909Zm-69.759-7.711-.01.017-.009.015-.009.015-.009.016-.009.016-.009.016-.008.015-.008.016-.009.016-.008.015-.008.016-.008.016-.008.016-.008.015-.008.016-.008.017-.008.015-.008.016-.008.016-.008.016-.008.016-.008.016-.007.017-.007.015-.007.016-.007.017-.007.016-.007.016L43,203.84l-.007.016-.007.017-.007.016-.007.016-.007.016-.007.017-.007.016-.006.016-.006.017-.006.016-.006.017-.006.016-.006.016-.006.017-.006.017-.006.016-.006.016-.006.017-.006.017-.006.016-.006.017-.005.016-.005.017-.005.017-.005.016-.005.017-.005.017-.005.016-.005.017,0,.017,0,.016,0,.018,0,.016,0,.017,0,.017,0,.017,0,.017,0,.016,0,.017,0,.017,0,.017,0,.017,0,.017,0,.017,0,.017,0,.017,0,.017,0,.017,0,.017,0,.017,0,.017,0,.017,0,.017,0,.017,0,.017,0,.017,0,.017,0,.017,0,.017,0,.018,0,.016,0,.018,0,.017,0,.017,0,.017,0,.017,0,.017,0,.017,0,.018,0,.017,0,.017,0,.017,0,.018,0,.017,0,.017,0,.017,0,.018,0,.017,0,.017v.559l0,.034v.035l0,.034v.035l0,.034,0,.018,0,.034,0,.034,0,.018,0,.017,0,.034,0,.017,0,.034,0,.018,0,.017.005.034.005.034,0,.018,0,.017.006.034,0,.017.006.034,0,.017,0,.017.007.034,0,.017.007.034,0,.017.008.034,0,.017,0,.016,0,.018,0,.016,0,.017.009.034,0,.017,0,.017,0,.016,0,.017,0,.017,0,.017.01.033.005.017.005.016.011.034.005.016.005.017.006.017.006.016.006.017.006.016.006.017.006.016.006.017.006.016.006.017.006.016.006.017.013.032.006.017.006.016.007.016.007.017.007.016.021.049.007.017.007.016.007.016.007.016.007.016.007.017.015.032.008.015.008.016.008.017.008.015.008.016.008.016.008.016.008.016.008.016.008.015.025.049.009.016.008.015.009.016.009.016.009.015.009.016.009.015.009.016.009.015.009.016.009.015.009.015.009.015.01.016.009.015.009.015.01.015.01.015.01.015.01.015.01.015.01.014.02.03.01.014.01.015.01.015.01.014.01.015.021.028.011.015.01.014.021.028.01.014.011.014.011.015.011.013.011.014.022.028.011.013.011.014.011.014.012.014.011.013.011.013.011.014.011.013.011.014.011.013.012.013.011.013.012.013.012.014.011.012.012.013.012.013.012.013.012.013.012.013.012.012.012.013.012.013.012.012.012.012.012.013.013.013.024.024.013.012.012.012.012.012.013.012.013.013.013.011.013.012.013.012.013.012.013.011.013.012.013.012.013.012.012.011.013.011.013.012.014.011.013.012.013.011.013.011.013.011.014.011.013.011.013.011.014.011.013.011.014.01.014.011.014.011.013.01.014.011.014.011.013.01.014.01.014.011.014.01.014.01.014.011.014.01.014.01.014.01.014.009.014.01.015.01.014.01.029.02.014.009.015.009.015.01.014.009.015.01.015.009.029.018.015.01.015.009.014.009.015.008.06.036.015.009.015.008.015.008.016.009.015.009.015.008.015.008.015.008.016.008.015.009.016.008.016.008.015.007.015.008.032.016.015.007.032.016.015.007.016.008.016.007.015.007.016.007.016.008.016.007.016.007.016.007.016.007.016.006.016.007.016.007.016.007.016.006.033.014.016.006.016.006.016.006.017.007.032.012.017.006.016.006.017.006.016.006.016.005.017.006.016.006.016.005.017.006.016.005.016.006.033.01.017.005.017.006.033.01.017.005.016,0,.017.005.018.005.017.005.017,0,.018.005.017,0,.016.005.017,0,.018,0,.017.005.016,0,.017,0,.018,0,.017,0,.017,0,.017,0,.017,0,.018,0,.017,0,.017,0,.018,0,.017,0,.017,0,.018,0,.018,0,.018,0,.018,0,.034.006.018,0,.018,0,.017,0,.018,0,.018,0,.018,0,.018,0,.017,0,.018,0,.036,0,.018,0,.017,0h.017l.018,0,.019,0,.017,0h.017l.019,0h.018l.017,0h.036l.018,0H62.634L51.067,189.8Zm33.118-57.366L54.835,183.28l15.334,26.561h41.573l-.433-63.833Z" transform="translate(53.592 -112.65)" fill-rule="evenodd" fill="url(#linear-gradient)"/>
    </g>
  </g>
</svg>
