<svg width="674" height="661" viewBox="0 0 674 661" fill="none" xmlns="http://www.w3.org/2000/svg">
<g id="ui-main 1" clip-path="url(#clip0)">
<g id="ui-main">
<g id="freepik--Table--inject-203">
<g id="freepik--table--inject-203">
<g id="freepik--table--inject-203_2">
<path id="Path 615" d="M120.91 466.373C120.926 466.194 120.99 466.022 121.096 465.876C121.201 465.73 121.344 465.615 121.51 465.543C121.956 465.317 122.45 465.199 122.95 465.199C123.45 465.199 123.944 465.317 124.39 465.543C124.554 465.616 124.695 465.732 124.799 465.878C124.902 466.024 124.965 466.195 124.98 466.373L117.74 509.143C117.724 509.267 117.677 509.385 117.604 509.487C117.53 509.588 117.433 509.669 117.32 509.723C117.008 509.875 116.666 509.953 116.32 509.953C115.974 509.953 115.632 509.875 115.32 509.723C115.207 509.669 115.11 509.588 115.036 509.487C114.963 509.385 114.916 509.267 114.9 509.143L120.91 466.373Z" fill="#455A64"/>
<path id="Path 616" d="M176.79 466.373C176.774 466.194 176.71 466.022 176.604 465.876C176.499 465.73 176.356 465.615 176.19 465.543C175.744 465.317 175.251 465.199 174.75 465.199C174.25 465.199 173.756 465.317 173.31 465.543C173.146 465.616 173.005 465.732 172.902 465.878C172.798 466.024 172.735 466.195 172.72 466.373L179.96 509.143C179.976 509.267 180.023 509.385 180.096 509.487C180.17 509.588 180.267 509.669 180.38 509.723C180.692 509.875 181.034 509.953 181.38 509.953C181.727 509.953 182.068 509.875 182.38 509.723C182.493 509.669 182.59 509.588 182.664 509.487C182.737 509.385 182.784 509.267 182.8 509.143L176.79 466.373Z" fill="#455A64"/>
<path id="Path 617" d="M151.13 469.613C151.115 469.435 151.052 469.264 150.949 469.118C150.845 468.972 150.704 468.856 150.54 468.783C150.094 468.557 149.601 468.439 149.1 468.439C148.6 468.439 148.106 468.557 147.66 468.783C147.495 468.855 147.351 468.97 147.246 469.116C147.14 469.262 147.076 469.434 147.06 469.613L147.66 520.503C147.678 520.626 147.725 520.742 147.799 520.841C147.872 520.94 147.969 521.02 148.08 521.073C148.391 521.226 148.733 521.305 149.08 521.305C149.427 521.305 149.769 521.226 150.08 521.073C150.194 521.023 150.292 520.944 150.366 520.844C150.44 520.744 150.486 520.627 150.5 520.503L151.13 469.613Z" fill="#455A64"/>
<path id="Path 618" d="M185.57 452.283C185.57 446.893 182.05 441.503 174.92 437.393C160.68 429.173 137.59 429.173 123.35 437.393C116.23 441.503 112.7 446.893 112.7 452.283V455.173C112.78 460.493 116.35 465.793 123.38 469.853C137.62 478.073 160.71 478.073 174.95 469.853C181.95 465.793 185.55 460.493 185.64 455.173L185.57 452.283Z" fill="#30475E"/>
<path id="Path 619" opacity="0.4" d="M185.57 452.283C185.57 446.893 182.05 441.503 174.92 437.393C160.68 429.173 137.59 429.173 123.35 437.393C116.23 441.503 112.7 446.893 112.7 452.283V455.173C112.78 460.493 116.35 465.793 123.38 469.853C137.62 478.073 160.71 478.073 174.95 469.853C181.95 465.793 185.55 460.493 185.64 455.173L185.57 452.283Z" fill="white"/>
<path id="Path 620" d="M123.35 437.393C109.11 445.613 109.11 458.953 123.35 467.173C137.59 475.393 160.68 475.393 174.92 467.173C189.16 458.953 189.17 445.613 174.92 437.393C160.67 429.173 137.55 429.173 123.35 437.393Z" fill="#30475E"/>
<path id="Path 621" opacity="0.6" d="M123.35 437.393C109.11 445.613 109.11 458.953 123.35 467.173C137.59 475.393 160.68 475.393 174.92 467.173C189.16 458.953 189.17 445.613 174.92 437.393C160.67 429.173 137.55 429.173 123.35 437.393Z" fill="white"/>
</g>
<g id="freepik--Pot--inject-203">
<g id="Group 40" opacity="0.05">
<path id="Path 622" opacity="0.05" d="M157.09 445.324C161.63 447.954 161.63 452.204 157.09 454.824C152.55 457.444 145.18 457.444 140.63 454.824C136.08 452.204 136.09 447.954 140.63 445.324C145.17 442.694 152.54 442.704 157.09 445.324Z" fill="black"/>
</g>
<path id="Path 623" d="M141.62 450.663C137.67 446.663 135.34 436.543 139.2 433.343H158.84C162.7 436.543 160.37 446.613 156.42 450.653L156.31 450.773L156.18 450.903L155.82 451.223L155.72 451.293L155.43 451.523C155.265 451.643 155.091 451.75 154.91 451.843C153.085 452.771 151.067 453.254 149.02 453.254C146.973 453.254 144.955 452.771 143.13 451.843C142.949 451.746 142.775 451.636 142.61 451.513C142.516 451.449 142.426 451.379 142.34 451.303L142.22 451.213C142.1 451.113 141.98 451.013 141.87 450.903L141.72 450.753L141.62 450.663Z" fill="#EBEBEB"/>
<path id="Path 624" d="M157.13 432.053C161.61 434.643 161.61 438.833 157.13 441.423C152.65 444.013 145.39 444.003 140.91 441.423C136.43 438.843 136.43 434.643 140.91 432.053C145.39 429.463 152.65 429.463 157.13 432.053Z" fill="#FAFAFA"/>
<path id="Path 625" d="M153.96 433.883C156.68 435.463 156.68 438.013 153.96 439.583C152.432 440.362 150.741 440.768 149.025 440.768C147.31 440.768 145.619 440.362 144.09 439.583C141.36 438.013 141.36 435.463 144.09 433.883C145.62 433.109 147.311 432.706 149.025 432.706C150.74 432.706 152.43 433.109 153.96 433.883Z" fill="#EBEBEB"/>
<path id="Path 626" d="M144.09 436.593C145.619 435.815 147.31 435.409 149.025 435.409C150.741 435.409 152.432 435.815 153.96 436.593C154.617 436.95 155.176 437.461 155.59 438.083C155.177 438.709 154.617 439.224 153.96 439.583C152.432 440.362 150.741 440.768 149.025 440.768C147.31 440.768 145.619 440.362 144.09 439.583C143.428 439.226 142.865 438.711 142.45 438.083C142.865 437.459 143.429 436.947 144.09 436.593Z" fill="#E0E0E0"/>
<path id="Path 627" d="M153.35 438.083C154.744 436.668 155.945 435.074 156.92 433.343C158.56 430.423 158.87 426.523 158.02 426.043C157.17 425.563 153.69 429.453 153.69 429.453C154.009 427.807 154.134 426.129 154.06 424.453C153.91 421.863 153.28 419.503 152.54 419.023C151.8 418.543 150.13 421.823 149.42 424.193C148.71 426.563 148.28 428.523 148.28 428.523C147.992 426.674 147.564 424.848 147 423.063C146.13 420.593 145.35 420.063 144.74 420.283C144.13 420.503 143.74 421.673 143.55 424.953C143.489 426.522 143.539 428.092 143.7 429.653C143.7 429.653 142.47 428.313 141.12 427.003C139.77 425.693 138.99 425.373 138.56 425.653C138.13 425.933 138.02 428.153 140.33 432.333C141.475 434.46 142.946 436.393 144.69 438.063C144.69 438.063 147.89 440.153 153.35 438.083Z" fill="#30475E"/>
</g>
</g>
</g>
<g id="freepik--Puff--inject-203">
<g id="freepik--bean-bag--inject-203">
<path id="Path 897" d="M254.59 465.603C269.88 474.433 292 495.303 292 532.963C292 570.623 274.2 598.633 240.12 611.143C221.89 617.833 192.66 618.143 173.88 611.473C154.74 601.683 141.88 591.603 134.82 573.313C127.58 552.093 140.53 529.873 158.12 517.163C175.71 504.453 173.63 489.993 186.12 474.973C192.81 466.893 202.66 459.973 214.68 458.643C227.75 457.183 242.96 458.883 254.59 465.603Z" fill="#30475E"/>
<path id="Path 898" opacity="0.8" d="M254.59 465.603C269.88 474.433 292 495.303 292 532.963C292 570.623 274.2 598.633 240.12 611.143C221.89 617.833 192.66 618.143 173.88 611.473C154.74 601.683 141.88 591.603 134.82 573.313C127.58 552.093 140.53 529.873 158.12 517.163C175.71 504.453 173.63 489.993 186.12 474.973C192.81 466.893 202.66 459.973 214.68 458.643C227.75 457.183 242.96 458.883 254.59 465.603Z" fill="white"/>
<path id="Path 899" opacity="0.15" d="M182.06 613.833C203.89 616.393 226.71 611.023 244.62 598.833C272.05 580.173 283.92 550.593 278.05 515.543C272.86 484.543 257.39 467.543 241.85 460.483C245.295 461.39 248.644 462.629 251.85 464.183C264.43 473.363 275.62 489.683 279.9 515.183C285.9 551.003 273.75 581.243 245.67 600.343C231.761 609.643 215.631 615.078 198.93 616.093C193.255 615.798 187.613 615.042 182.06 613.833Z" fill="#30475E"/>
</g>
</g>
<g id="freepik--Character--inject-203">
<path id="Path 900" opacity="0.15" d="M168.82 528.563C180.16 522.293 182.36 515.433 192.21 489.863C202.06 464.293 220 466.233 220 466.233C220 466.233 246.36 467.123 252.66 485.913C257 498.913 256.92 524.453 252.81 538.243C250.35 546.503 246.99 550.413 246.99 550.413C259.94 547.863 270.27 556.603 270.27 556.603C270.27 556.603 260.55 552.973 242.61 560.173C231.98 564.433 222.66 569.853 211.43 575.473C202.48 579.943 196.92 583.713 195.98 585.683C192.39 593.223 190.92 604.033 186.38 614.683C181.887 613.97 177.483 612.784 173.24 611.143C161.82 605.253 152.66 599.223 145.67 591.343C145.45 588.793 145.61 586.173 145.54 583.623C145.29 574.213 145.17 564.783 145.67 555.383C146.82 533.773 157.48 534.833 168.82 528.563Z" fill="#30475E"/>
<g id="freepik--character--inject-203">
<path id="Path 901" d="M166.94 612.593L166.54 632.153C166.789 633.664 167.488 635.064 168.547 636.17C169.605 637.276 170.972 638.037 172.47 638.353C177.72 639.433 178.47 632.873 178.47 632.873L182.6 609.873L166.94 612.593Z" fill="#FFA8A7"/>
<path id="Path 902" d="M179.81 642.943C179.812 643.708 179.677 644.467 179.41 645.183C179.01 646.083 176.59 647.183 175.26 647.833C174.326 648.187 173.472 648.722 172.748 649.409C172.023 650.096 171.443 650.92 171.04 651.833C169.516 654.858 167.019 657.281 163.95 658.713C159.903 660.378 155.445 660.769 151.17 659.833C145.84 658.833 145.46 655.633 145.46 655.633C145.46 655.633 145.22 652.633 146.56 652.223C147.9 651.813 179.81 642.943 179.81 642.943Z" fill="#263238"/>
<path id="Path 903" d="M178.73 631.443C179.13 631.513 179.18 631.973 179.24 633.333C179.3 634.693 179.8 636.403 179.95 637.703C180.254 639.571 180.216 641.479 179.84 643.333C178.32 645.883 175.2 645.443 172.22 648.113C169.48 650.563 166.78 656.383 159.77 657.663C152.76 658.943 147.48 656.663 146.22 654.663C144.96 652.663 146.17 650.803 150.69 648.453C155.49 645.963 161.87 638.403 161.87 638.403C162.64 637.403 163.42 636.403 164.14 635.263C164.486 634.666 164.755 634.028 164.94 633.363L165.69 631.133C165.8 630.793 165.96 630.403 166.3 630.303C166.455 630.277 166.613 630.282 166.766 630.318C166.919 630.354 167.063 630.42 167.19 630.513C169.187 631.609 171.318 632.44 173.53 632.983C173.791 633.023 174.033 633.146 174.22 633.333C174.295 633.5 174.334 633.681 174.334 633.863C174.334 634.046 174.295 634.227 174.22 634.393C174.12 634.863 174.09 635.345 174.13 635.823C174.13 636.033 174.22 636.293 174.43 636.333C174.64 636.373 174.79 636.163 174.89 635.983L175.89 634.203C176.228 633.592 176.774 633.124 177.43 632.883C177.812 632.703 178.177 632.489 178.52 632.243L178.73 631.443Z" fill="#455A64"/>
<path id="Path 904" d="M164.35 656.063C164.285 654.445 163.78 652.876 162.888 651.524C161.996 650.172 160.752 649.09 159.29 648.393C154.06 645.623 150.84 647.303 149.2 648.443C147.26 649.793 144.47 652.633 146.1 654.763C147.87 657.053 150.74 658.173 156.1 658.323C161.46 658.473 164.35 656.063 164.35 656.063Z" fill="#FAFAFA"/>
<path id="Path 905" d="M171.8 639.833C171.706 639.829 171.613 639.804 171.53 639.759C171.447 639.714 171.375 639.65 171.32 639.573C170.74 638.723 166.95 635.573 163.23 636.523C163.05 636.093 163.37 635.653 164.14 635.213C168.03 634.923 171.63 637.913 172.33 638.933C172.374 638.996 172.404 639.067 172.42 639.143C172.435 639.218 172.435 639.295 172.419 639.37C172.403 639.445 172.371 639.516 172.327 639.579C172.283 639.641 172.226 639.694 172.16 639.733C172.052 639.8 171.927 639.834 171.8 639.833Z" fill="#FAFAFA"/>
<path id="Path 906" d="M161.06 639.283C161.126 639.002 161.257 638.741 161.443 638.52C161.629 638.299 161.864 638.126 162.13 638.013C163.602 638.092 165.043 638.464 166.369 639.108C167.695 639.752 168.878 640.655 169.85 641.763C169.893 641.827 169.922 641.898 169.936 641.973C169.951 642.048 169.95 642.125 169.934 642.199C169.918 642.274 169.888 642.345 169.844 642.407C169.8 642.47 169.745 642.523 169.68 642.563C169.57 642.633 169.44 642.664 169.31 642.653C169.217 642.653 169.126 642.63 169.044 642.587C168.962 642.543 168.892 642.48 168.84 642.403C168.27 641.583 164.67 638.573 161.06 639.283Z" fill="#FAFAFA"/>
<path id="Path 907" d="M155.16 645.193C155.524 644.503 156.118 643.961 156.84 643.663C158.361 643.687 159.86 644.031 161.238 644.674C162.617 645.317 163.844 646.243 164.84 647.393C164.883 647.457 164.912 647.529 164.927 647.605C164.941 647.681 164.941 647.759 164.925 647.834C164.909 647.909 164.878 647.981 164.835 648.044C164.791 648.108 164.735 648.162 164.67 648.203C164.534 648.286 164.372 648.315 164.217 648.283C164.061 648.252 163.923 648.162 163.83 648.033C163.25 647.143 159.06 643.663 155.16 645.193Z" fill="#FAFAFA"/>
<path id="Path 908" d="M166.83 645.473C166.737 645.469 166.645 645.445 166.562 645.402C166.479 645.358 166.407 645.298 166.35 645.223C165.77 644.383 162.06 641.273 158.35 642.143C158.453 641.841 158.624 641.566 158.849 641.339C159.074 641.112 159.348 640.939 159.65 640.833C161.121 640.91 162.561 641.282 163.885 641.926C165.21 642.57 166.391 643.474 167.36 644.583C167.404 644.646 167.434 644.717 167.45 644.793C167.465 644.868 167.464 644.945 167.449 645.02C167.433 645.095 167.401 645.166 167.357 645.229C167.312 645.291 167.256 645.344 167.19 645.383C167.083 645.451 166.957 645.483 166.83 645.473Z" fill="#FAFAFA"/>
<path id="Path 909" d="M138.19 595.883L136.55 615.383C136.702 616.906 137.31 618.347 138.295 619.517C139.28 620.688 140.596 621.534 142.07 621.943C147.24 623.363 148.41 616.853 148.41 616.853L154 594.163L138.19 595.883Z" fill="#FFA8A7"/>
<path id="Path 910" d="M149.1 626.993C149.051 627.756 148.868 628.504 148.56 629.203C148.1 630.073 145.61 631.043 144.25 631.583C143.297 631.875 142.411 632.354 141.643 632.991C140.876 633.627 140.243 634.41 139.78 635.293C138.068 638.213 135.422 640.471 132.27 641.703C128.123 643.105 123.648 643.209 119.44 642.003C114.2 640.623 114.01 637.453 114.01 637.453C114.01 637.453 114.01 634.453 115.33 634.123C116.65 633.793 149.1 626.993 149.1 626.993Z" fill="#263238"/>
<path id="Path 911" d="M148.75 615.453C149.16 615.543 149.17 616.003 149.14 617.363C149.11 618.723 149.51 620.463 149.58 621.773C149.764 623.66 149.605 625.564 149.11 627.393C147.42 629.833 144.34 629.193 141.2 631.673C138.31 633.943 135.2 639.583 128.2 640.413C121.2 641.243 116.01 638.603 114.88 636.513C113.75 634.423 115.07 632.653 119.73 630.603C124.73 628.413 131.53 621.283 131.53 621.283C132.37 620.283 133.21 619.343 133.99 618.283C134.375 617.709 134.685 617.087 134.91 616.433C135.21 615.713 135.51 614.983 135.8 614.253C135.94 613.923 136.12 613.553 136.47 613.463C136.785 613.439 137.098 613.54 137.34 613.743C139.267 614.958 141.34 615.922 143.51 616.613C143.771 616.658 144.008 616.792 144.18 616.993C144.254 617.16 144.292 617.341 144.292 617.523C144.292 617.706 144.254 617.886 144.18 618.053C144.051 618.515 143.991 618.994 144 619.473C144 619.693 144.06 619.953 144.27 620.003C144.48 620.053 144.64 619.853 144.75 619.683C145.12 619.113 145.49 618.543 145.87 617.973C146.247 617.386 146.822 616.953 147.49 616.753C147.886 616.604 148.264 616.413 148.62 616.183L148.75 615.453Z" fill="#455A64"/>
<path id="Path 912" d="M132.81 639.103C132.854 637.48 132.452 635.877 131.648 634.466C130.844 633.056 129.669 631.893 128.25 631.103C123.25 627.993 119.88 629.473 118.18 630.503C116.18 631.723 113.18 634.383 114.68 636.603C116.3 639.003 119.09 640.313 124.45 640.803C129.81 641.293 132.81 639.103 132.81 639.103Z" fill="#FAFAFA"/>
<path id="Path 913" d="M141.35 623.383C141.259 623.373 141.171 623.343 141.093 623.295C141.015 623.246 140.949 623.181 140.9 623.103C140.37 622.223 136.79 618.803 133.02 619.543C132.86 619.103 133.21 618.683 134.02 618.293C137.93 618.293 141.33 621.463 141.97 622.523C142.046 622.657 142.065 622.816 142.024 622.964C141.982 623.112 141.884 623.238 141.75 623.313C141.628 623.38 141.487 623.405 141.35 623.383Z" fill="#FAFAFA"/>
<path id="Path 914" d="M130.63 622.153C130.71 621.875 130.856 621.62 131.056 621.411C131.257 621.202 131.505 621.045 131.78 620.953C133.242 621.126 134.656 621.589 135.937 622.316C137.218 623.042 138.341 624.017 139.24 625.183C139.316 625.317 139.335 625.476 139.294 625.624C139.252 625.772 139.154 625.898 139.02 625.973C138.902 626.031 138.771 626.055 138.64 626.043C138.548 626.033 138.459 626.002 138.381 625.951C138.303 625.901 138.237 625.833 138.19 625.753C137.67 624.903 134.28 621.663 130.63 622.153Z" fill="#FAFAFA"/>
<path id="Path 915" d="M124.35 627.673C124.76 627.007 125.389 626.505 126.13 626.253C129.96 626.303 133.28 629.443 133.91 630.483C133.95 630.549 133.976 630.622 133.987 630.698C133.998 630.775 133.993 630.852 133.972 630.926C133.951 631 133.916 631.069 133.867 631.129C133.819 631.189 133.758 631.238 133.69 631.273C133.553 631.354 133.39 631.377 133.237 631.338C133.083 631.298 132.951 631.2 132.87 631.063C132.35 630.133 128.35 626.383 124.35 627.673Z" fill="#FAFAFA"/>
<path id="Path 916" d="M135.98 628.693C135.888 628.683 135.799 628.652 135.721 628.601C135.643 628.551 135.577 628.483 135.53 628.403C135 627.543 131.53 624.203 127.77 624.833C127.881 624.536 128.062 624.269 128.296 624.055C128.531 623.841 128.813 623.686 129.12 623.603C130.582 623.778 131.994 624.243 133.275 624.969C134.556 625.695 135.679 626.669 136.58 627.833C136.656 627.967 136.675 628.126 136.634 628.274C136.592 628.422 136.494 628.548 136.36 628.623C136.244 628.686 136.111 628.71 135.98 628.693Z" fill="#FAFAFA"/>
<path id="Path 917" d="M216.2 506.303C217.34 514.213 217.62 518.673 214.59 526.513C211.56 534.353 204.71 546.763 193.4 552.603C184.05 557.443 169.94 562.143 167.22 563.343C163.75 564.863 163.1 566.053 162.41 571.773C161.41 580.103 159.58 583.773 156.05 593.113C154.45 597.333 150.31 609.113 150.31 609.113C146.62 609.953 140.66 608.523 137.08 606.373C137.08 606.373 141.17 558.153 143.81 551.503C146.45 544.853 169.07 534.703 176.75 530.613C184.43 526.523 188.75 523.953 197.52 518.413L216.2 506.303Z" fill="#37474F"/>
<path id="Path 918" d="M167.22 563.343C163.75 564.863 163.1 566.053 162.41 571.773C161.846 576.73 160.605 581.585 158.72 586.203C159.28 584.053 160.55 576.523 160.72 575.203C161.59 569.033 161.41 564.883 162.28 562.873C163.15 560.863 171.18 557.083 171.18 557.083L191.18 541.253C187.76 537.023 188.95 530.413 188.95 530.413C189.116 532.814 189.845 535.141 191.079 537.207C192.312 539.273 194.015 541.019 196.05 542.303C192.23 545.073 176.11 559.373 174.9 560.453C171.21 561.833 168.35 562.833 167.22 563.343Z" fill="#263238"/>
<path id="Path 919" d="M195.98 529.983C197.579 532.51 199.36 534.916 201.31 537.183L199.69 538.463C197.875 535.927 196.611 533.038 195.98 529.983Z" fill="#37474F"/>
<path id="Path 920" d="M239.08 536.123C237.53 545.953 234.74 550.833 231.92 553.783C227.65 558.233 223.85 560.913 212.55 566.783C203.19 571.623 194.12 577.593 191.55 579.083C188.61 580.783 187.81 582.173 187.61 586.003C186.96 598.873 182.88 613.283 180.61 625.483C180.61 625.483 171.8 628.783 166.61 623.483C166.61 623.483 164.99 572.353 167.61 565.703C170.23 559.053 201.35 537.183 201.35 537.183C201.35 537.183 199.18 526.323 197.56 518.413L239.08 536.123Z" fill="#37474F"/>
<path id="Path 921" d="M209.88 468.833C205.26 468.463 199.95 469.113 197.22 472.633C193.58 477.303 186.22 496.273 183.83 505.733C183.18 508.313 195.17 514.213 195.17 514.213L202.72 497.213L209.88 468.833Z" fill="#F28F8F"/>
<path id="Path 922" d="M209.1 468.683C203.89 468.343 200.25 469.303 197.85 471.573C195.45 473.843 192.85 479.653 191.46 483.013C190.07 486.373 187.14 494.693 187.14 494.693C187.14 494.693 190.81 499.613 200.78 501.093C203.72 491.473 209.1 468.683 209.1 468.683Z" fill="#30475E"/>
<path id="Path 923" d="M245.29 478.203C245.73 482.203 245.63 512.643 238.36 539.973C225.69 545.973 194.69 535.613 192.04 520.293C192.04 520.293 196.23 513.953 197.77 509.293C198.12 501.523 199.21 489.033 199.72 484.473C200.72 475.473 204.72 469.473 209.1 468.653L223.69 468.863L231.85 470.513C231.85 470.513 245.01 475.703 245.29 478.203Z" fill="#455A64"/>
<path id="Path 924" d="M233.88 432.263C235.026 432.444 236.111 432.903 237.039 433.6C237.966 434.298 238.708 435.212 239.2 436.263C240.28 438.553 239.41 443.093 237.98 449.083C237.18 452.947 235.963 456.712 234.35 460.313C233.784 461.337 232.846 462.103 231.73 462.453L231.84 455.353L232.06 450.413C232.06 450.413 227.61 451.793 226.47 444.593C225.75 440.053 226.35 438.593 226.35 438.593L233.88 432.263Z" fill="#263238"/>
<path id="Path 925" d="M228.49 440.023C228.501 443.086 227.451 446.058 225.517 448.433C223.583 450.808 220.885 452.439 217.884 453.048C214.882 453.657 211.762 453.207 209.056 451.774C206.349 450.341 204.222 448.014 203.039 445.189C201.855 442.365 201.687 439.217 202.564 436.282C203.441 433.348 205.308 430.808 207.847 429.095C210.386 427.383 213.441 426.604 216.49 426.891C219.539 427.177 222.395 428.512 224.57 430.668C225.806 431.893 226.789 433.35 227.461 434.956C228.134 436.561 228.484 438.283 228.49 440.023Z" fill="#263238"/>
<path id="Path 926" d="M230.4 449.833C231.74 450.223 232.4 447.833 233.4 446.833C233.865 446.429 234.413 446.132 235.005 445.962C235.597 445.792 236.219 445.753 236.827 445.848C237.436 445.943 238.016 446.17 238.528 446.513C239.04 446.856 239.471 447.307 239.79 447.833C242.06 450.963 239.5 456.083 237.07 457.233C233.5 458.923 231.87 455.323 231.87 455.323L231.63 471.323C231.63 471.323 230.71 474.323 224.63 476.543C219.86 478.263 212.83 475.543 217.24 470.913V466.053C214.956 466.5 212.613 466.557 210.31 466.223C207.93 465.793 206.08 463.933 204.96 460.223C202.79 452.973 203.24 443.393 205.96 434.733C209.59 431.883 218.71 433.733 226.4 438.543C226.63 448.483 228.88 449.433 230.4 449.833Z" fill="#FFA8A7"/>
<path id="Path 927" d="M219.35 456.583L213.02 458.123C213.1 458.54 213.264 458.936 213.502 459.288C213.74 459.64 214.047 459.939 214.404 460.168C214.761 460.397 215.162 460.551 215.58 460.621C215.999 460.691 216.428 460.675 216.84 460.573C217.689 460.355 218.422 459.82 218.889 459.078C219.356 458.336 219.521 457.443 219.35 456.583Z" fill="#B16668"/>
<path id="Path 928" d="M219.07 458.743C218.71 458.429 218.273 458.215 217.804 458.122C217.335 458.03 216.85 458.064 216.398 458.219C215.945 458.374 215.542 458.645 215.228 459.006C214.914 459.367 214.701 459.804 214.61 460.273C215.293 460.65 216.092 460.757 216.85 460.573C217.332 460.45 217.78 460.222 218.164 459.906C218.547 459.589 218.857 459.192 219.07 458.743Z" fill="#F28F8F"/>
<path id="Path 929" d="M203.1 426.043C203.138 425.945 203.202 425.859 203.285 425.794C203.367 425.729 203.466 425.688 203.57 425.673C203.738 425.681 203.898 425.748 204.02 425.863C204.935 426.586 205.908 427.232 206.93 427.793C206.648 426.477 206.621 425.12 206.85 423.793C206.99 422.993 207.2 421.133 208.19 420.923C208.78 420.803 209.3 421.293 209.75 421.703C213.75 425.393 218.93 423.633 223.75 423.703C227.75 423.803 232.61 425.393 234.45 429.283C235.29 431.053 235.45 432.933 233.82 434.183C231.495 435.888 228.994 437.34 226.36 438.513C221.98 439.833 210.56 441.513 204.59 434.083C203.567 432.641 202.883 430.987 202.59 429.243C202.44 428.142 202.599 427.02 203.05 426.003C203.05 426.003 203.09 426.053 203.1 426.043Z" fill="#263238"/>
<path id="Path 930" d="M217.16 466.113C217.16 466.113 223.16 464.553 225.58 462.973C227.16 461.951 228.462 460.552 229.37 458.903C229.37 458.903 228.78 462.313 227.1 464.113C224.15 467.263 217.16 468.043 217.16 468.043V466.113Z" fill="#F28F8F"/>
<path id="Path 931" d="M217.29 448.733C217.302 449.02 217.398 449.296 217.565 449.528C217.733 449.761 217.966 449.938 218.234 450.04C218.502 450.141 218.794 450.16 219.073 450.097C219.353 450.033 219.607 449.888 219.805 449.681C220.003 449.474 220.135 449.213 220.186 448.931C220.236 448.649 220.203 448.358 220.089 448.095C219.976 447.832 219.787 447.608 219.547 447.451C219.307 447.294 219.027 447.212 218.74 447.213C218.347 447.224 217.973 447.39 217.702 447.674C217.43 447.959 217.282 448.34 217.29 448.733Z" fill="#263238"/>
<path id="Path 932" d="M218.61 442.473L221.8 444.053C222.004 443.617 222.032 443.118 221.877 442.662C221.722 442.205 221.397 441.826 220.97 441.603C220.759 441.502 220.529 441.443 220.294 441.432C220.06 441.421 219.826 441.457 219.606 441.538C219.385 441.619 219.184 441.744 219.013 441.905C218.842 442.065 218.705 442.259 218.61 442.473Z" fill="#263238"/>
<path id="Path 933" d="M205.35 443.133L208.78 442.133C208.725 441.906 208.624 441.692 208.483 441.505C208.342 441.318 208.165 441.162 207.962 441.046C207.759 440.93 207.534 440.857 207.302 440.83C207.069 440.804 206.834 440.825 206.61 440.893C206.156 441.039 205.774 441.351 205.541 441.766C205.307 442.182 205.239 442.67 205.35 443.133Z" fill="#263238"/>
<path id="Path 934" d="M206.28 447.833C206.292 448.12 206.388 448.396 206.555 448.628C206.723 448.861 206.956 449.038 207.224 449.14C207.492 449.241 207.784 449.26 208.063 449.197C208.343 449.133 208.597 448.988 208.795 448.781C208.993 448.574 209.125 448.313 209.176 448.031C209.226 447.749 209.193 447.458 209.079 447.195C208.966 446.932 208.777 446.708 208.537 446.551C208.297 446.394 208.017 446.312 207.73 446.313C207.337 446.324 206.963 446.49 206.692 446.774C206.42 447.059 206.272 447.44 206.28 447.833Z" fill="#263238"/>
<path id="Path 935" d="M213.2 454.803L208.38 453.263L213.39 445.243L213.2 454.803Z" fill="#F28F8F"/>
<path id="Path 936" d="M177.11 497.093L178.11 496.283C178.26 496.196 178.429 496.145 178.602 496.133C178.775 496.12 178.949 496.148 179.11 496.213L189.82 499.653C190.359 499.859 190.848 500.179 191.252 500.592C191.656 501.005 191.966 501.5 192.16 502.043L198.95 524.913C199.039 525.101 199.068 525.311 199.032 525.515C198.996 525.719 198.897 525.908 198.75 526.053L197.68 526.903C197.531 526.994 197.363 527.048 197.189 527.062C197.016 527.075 196.841 527.049 196.68 526.983L185.96 523.543C185.422 523.336 184.936 523.015 184.534 522.603C184.132 522.19 183.823 521.696 183.63 521.153C182.3 516.663 178.17 502.783 176.84 498.283C176.69 497.713 176.8 497.303 177.11 497.093Z" fill="#455A64"/>
<path id="Path 937" d="M189.98 501.163C190.527 501.613 190.938 502.205 191.17 502.873L197.96 525.733C198.041 525.918 198.07 526.121 198.041 526.321C198.013 526.521 197.93 526.709 197.8 526.863L198.8 526.073C198.95 525.927 199.049 525.737 199.085 525.531C199.121 525.324 199.091 525.112 199 524.923L192.21 502.053C191.986 501.432 191.612 500.875 191.12 500.433L189.98 501.163Z" fill="#263238"/>
<path id="Path 938" d="M197.96 525.743L191.17 502.833C190.976 502.29 190.666 501.795 190.262 501.382C189.858 500.969 189.369 500.649 188.83 500.443L178.12 497.003C177.12 496.683 176.56 497.233 176.86 498.233C178.19 502.733 182.32 516.613 183.65 521.103C183.843 521.646 184.152 522.14 184.554 522.553C184.956 522.965 185.442 523.286 185.98 523.493L196.7 526.933C197.69 527.293 198.25 526.743 197.96 525.743Z" fill="#37474F"/>
<path id="Path 939" d="M179.06 505.683C177.17 505.143 176.06 507.163 176.2 510.683C176.34 514.203 178.47 520.683 183.9 519.053C186.01 518.403 187.51 514.873 185.28 513.323C183.434 512.111 181.7 510.735 180.1 509.213L179.06 505.683Z" fill="#F28F8F"/>
<path id="Path 940" d="M246.05 526.833C249.719 518.371 252.157 509.427 253.29 500.273C255.02 485.423 254.02 479.513 243.41 476.213C235.69 483.093 238.09 499.743 238.09 499.743C236.77 505.963 234.57 516.543 233.09 520.483C223.09 520.483 204.8 514.933 202.75 513.843C201.61 512.987 200.628 511.938 199.85 510.743C199.147 509.708 198.208 508.854 197.11 508.253C195.71 507.523 194.56 507.093 193.56 506.553L194.97 511.333C194.86 511.603 194.23 511.673 193.97 511.773C191.848 512.476 189.61 512.761 187.38 512.613C182.73 512.283 178.38 508.923 179.28 513.053C179.65 514.693 180.34 517.773 182.81 519.843C185.28 521.913 194.34 522.843 196.89 523.983C196.89 523.983 220.21 533.743 229.76 534.863C239.92 536.003 241.8 535.633 246.05 526.833Z" fill="#FFA8A7"/>
<path id="Path 941" d="M242.45 475.563C247.6 477.043 251.97 478.303 253.89 485.643C255.81 492.983 251.98 510.763 251.98 510.763C251.98 510.763 242.36 512.853 235.77 508.763L237.27 499.763C236.75 489.233 237.77 480.613 242.45 475.563Z" fill="#30475E"/>
</g>
</g>
<g id="Group 42">
<g id="Rectangle 232" filter="url(#filter0_d)">
<path d="M549 205H355C349.477 205 345 209.477 345 215V409C345 414.523 349.477 419 355 419H549C554.523 419 559 414.523 559 409V215C559 209.477 554.523 205 549 205Z" fill="#E8E8E8"/>
</g>
<g id="designer-logo">
<path id="Path 996" fill-rule="evenodd" clip-rule="evenodd" d="M503.976 263.109C503.976 262.285 503.648 261.494 503.065 260.911C502.482 260.328 501.691 260 500.867 260H403.459C402.635 260 401.844 260.328 401.261 260.911C400.678 261.494 400.35 262.285 400.35 263.109V360.524C400.35 361.349 400.678 362.139 401.261 362.722C401.844 363.305 402.635 363.633 403.459 363.633H500.867C501.691 363.633 502.482 363.305 503.065 362.722C503.648 362.139 503.976 361.349 503.976 360.524V263.109Z" fill="#1B72BE"/>
<path id="Path 997" fill-rule="evenodd" clip-rule="evenodd" d="M503.976 263.109C503.976 262.285 503.648 261.494 503.065 260.911C502.482 260.328 501.692 260 500.867 260H442.837L400.351 333.594V360.524C400.351 361.349 400.679 362.139 401.262 362.722C401.845 363.305 402.636 363.633 403.46 363.633H500.868C501.693 363.633 502.483 363.305 503.066 362.722C503.649 362.139 503.977 361.349 503.977 360.524L503.976 263.109Z" fill="#0568AA"/>
<path id="Path 998" fill-rule="evenodd" clip-rule="evenodd" d="M448.262 363.633H441.032L422.368 326.102L458.745 260.002H464.599L426.516 325.966L448.262 363.634V363.633ZM467.839 363.633H449.816L428.58 326.848H503.98L503.976 333.718L467.839 363.633ZM449.926 260H443.874L400.351 335.389V345.873L449.926 260ZM460.439 325.492H439.939C438.764 325.498 437.607 325.194 436.587 324.61C435.568 324.026 434.72 323.183 434.131 322.166C433.541 321.149 433.231 319.994 433.231 318.819C433.231 317.643 433.542 316.489 434.132 315.472L444.392 297.695L460.439 325.492ZM503.976 325.492H461.993L445.169 296.348L466.153 260H473.753L462.713 297.576L467.839 308.107L503.976 322.318V325.492Z" fill="#074F7F"/>
<path id="Path 999" fill-rule="evenodd" clip-rule="evenodd" d="M503.976 363.632H451.37L430.912 328.193H503.976V363.632ZM446.708 363.632H400.351V338.081L445.428 259.999H463.044L424.963 325.965L446.708 363.632ZM458.108 324.152H440.3C439.324 324.155 438.364 323.901 437.517 323.415C436.67 322.928 435.967 322.227 435.478 321.382C434.989 320.537 434.732 319.578 434.732 318.601C434.733 317.625 434.991 316.666 435.48 315.821L444.391 300.386L458.108 324.152ZM503.972 324.152H462.772L446.718 296.352L467.702 260.004H503.971L503.972 324.152Z" fill="url(#paint0_radial)"/>
<path id="Path 1000" fill-rule="evenodd" clip-rule="evenodd" d="M506.38 365.538H452.471L430.912 328.194H506.343L506.38 365.538ZM424.962 325.968L447.808 365.538H397.17L397 343.883L446.678 257.831H464.295L424.962 325.968ZM433.062 329.44L453.185 364.298H505.132L505.098 329.44H433.062ZM447.393 259.078L398.247 344.212L398.404 364.295H445.654L423.524 325.968L462.14 259.078H447.393ZM458.108 324.155H439.976H439.953H439.93H439.907H439.884H439.861H439.838H439.815H439.792H439.769H439.746H439.723H439.7H439.677H439.654H439.631H439.608H439.585H439.562H439.539H439.516H439.493H439.47H439.447H439.424H439.401H439.378H439.355H439.332H439.31H439.288H439.266H439.244H439.222L439.2 324.15H439.178L439.156 324.145H439.134L439.112 324.14L439.09 324.135L439.068 324.13H439.046L439.024 324.124L439.002 324.119L438.98 324.114L438.958 324.109L438.936 324.103L438.914 324.098L438.892 324.093L438.87 324.087L438.848 324.081L438.826 324.075L438.804 324.069L438.782 324.063L438.76 324.057L438.738 324.051L438.716 324.045L438.694 324.039L438.672 324.032L438.65 324.026L438.628 324.019L438.606 324.012L438.584 324.006L438.562 323.999L438.541 323.992L438.524 323.868L438.503 323.861L438.482 323.853L438.461 323.846L438.44 323.839L438.419 323.832L438.398 323.824L438.377 323.816L438.356 323.809L438.335 323.801L438.314 323.793L438.293 323.785L438.272 323.777L438.251 323.769L438.23 323.761L438.209 323.753L438.188 323.744L438.167 323.736L438.146 323.727L438.125 323.719L438.104 323.71L438.083 323.701L438.062 323.692L438.041 323.684L438.02 323.674L437.999 323.665L437.978 323.656L437.958 323.647L437.938 323.638L437.918 323.628L437.898 323.619L437.878 323.609L437.858 323.6L437.838 323.59L437.818 323.58L437.798 323.57L437.778 323.56L437.758 323.55L437.738 323.54L437.718 323.53L437.698 323.52L437.678 323.509L437.658 323.499L437.638 323.488L437.618 323.478L437.598 323.467L437.578 323.456L437.558 323.445L437.538 323.434L437.518 323.424L437.499 323.413L437.48 323.401L437.461 323.39L437.442 323.379L437.423 323.367L437.404 323.356L437.385 323.345L437.366 323.333L437.347 323.321L437.324 323.299L437.305 323.288L437.286 323.276L437.267 323.264L437.248 323.252L437.229 323.24L437.21 323.227L437.191 323.215L437.172 323.203L437.153 323.19L437.134 323.178L437.115 323.165L437.097 323.152L437.079 323.14L437.061 323.127L437.043 323.114L437.025 323.101L437.007 323.088L436.99 323.068L436.972 323.055L436.954 323.041L436.936 323.028L436.918 323.015L436.9 323.001L436.882 322.988L436.864 322.974L436.846 322.96L436.828 322.946L436.81 322.933L436.792 322.919L436.774 322.905L436.757 322.89L436.74 322.876L436.724 322.868L436.707 322.854L436.69 322.839L436.673 322.825L436.656 322.811L436.639 322.796L436.622 322.781L436.605 322.767L436.588 322.752L436.571 322.737L436.554 322.722L436.537 322.707L436.52 322.692L436.503 322.677L436.486 322.662L436.47 322.646L436.454 322.631L436.438 322.615L436.422 322.6L436.406 322.584L436.39 322.569L436.374 322.553L436.358 322.537L436.342 322.521L436.324 322.497L436.308 322.481L436.292 322.465L436.276 322.449L436.26 322.433L436.244 322.417L436.228 322.4L436.213 322.384L436.198 322.368L436.183 322.351L436.168 322.334L436.153 322.318L436.138 322.301L436.123 322.284L436.108 322.267L436.093 322.25L436.078 322.233L436.063 322.216L436.048 322.199L436.033 322.182L436.018 322.165L436.003 322.147L435.988 322.13L435.974 322.112L435.96 322.095L435.948 322.068L435.934 322.05L435.92 322.033L435.906 322.015L435.892 321.997L435.878 321.979L435.864 321.961L435.85 321.943L435.836 321.925L435.822 321.907L435.808 321.889L435.794 321.87L435.781 321.852L435.768 321.833L435.755 321.815L435.742 321.796L435.729 321.777L435.716 321.759L435.703 321.74L435.69 321.721L435.677 321.702L435.664 321.683L435.651 321.664L435.638 321.645L435.625 321.626L435.613 321.607L435.601 321.587L435.589 321.568L435.577 321.549L435.565 321.529L435.553 321.51L435.541 321.49L435.529 321.47L435.517 321.451L435.505 321.431L435.493 321.411L435.481 321.391L435.469 321.371L435.457 321.351L435.446 321.331L435.435 321.311L435.424 321.291L435.413 321.271L435.402 321.251L435.391 321.231L435.38 321.21L435.369 321.19L435.358 321.17L435.347 321.149L435.336 321.129L435.326 321.109L435.316 321.088L435.306 321.068L435.296 321.047L435.286 321.027L435.276 321.006L435.266 320.985L435.256 320.965L435.246 320.944L435.236 320.923L435.226 320.903L435.217 320.882L435.208 320.861L435.199 320.841L435.19 320.82L435.181 320.799L435.172 320.778L435.163 320.757L435.154 320.736L435.145 320.715L435.136 320.694L435.128 320.673L435.12 320.652L435.112 320.631L435.104 320.61L435.096 320.589L435.088 320.568L435.08 320.546L435.072 320.525L435.064 320.504L435.056 320.483L435.048 320.462L435.04 320.44L435.033 320.419L435.026 320.398L435.019 320.376L435.012 320.355L435.005 320.333L434.998 320.312L434.991 320.291L434.984 320.269L434.977 320.248L434.97 320.226L434.964 320.204L434.958 320.183L434.952 320.161L434.946 320.14L434.94 320.118L434.934 320.097L434.928 320.075L434.922 320.053L434.916 320.032L434.91 320.01L434.904 319.988L434.899 319.966L434.894 319.945L434.889 319.923L434.884 319.901L434.879 319.879L434.874 319.858V319.836V319.814V319.792V319.77V319.748V319.726V319.704V319.682V319.66V319.639V319.617V319.595V319.573V319.55V319.529V319.506V319.484V319.462V319.44V319.418V319.396V319.374V319.352V319.33V319.308V319.286V319.263V319.241V319.219V319.197V319.175V319.153V319.13V319.108V319.086V319.064V319.042V319.019V318.997V318.277V318.255V318.233V318.211V318.189V318.167V318.144V318.122V318.1V318.078V318.056V318.033V318.011V317.989V317.967V317.945V317.923V317.901V317.879V317.856V317.834V317.812V317.79V317.768V317.746V317.724V317.702V317.68V317.658V317.636V317.614V317.592V317.57V317.548V317.527V317.505V317.483V317.461V317.439V317.417L434.879 317.395L434.884 317.374L434.889 317.352L434.894 317.33L434.899 317.308L434.904 317.287L434.91 317.265L434.916 317.243L434.922 317.221L434.928 317.2L434.934 317.178L434.94 317.156L434.946 317.135L434.952 317.113L434.958 317.092L434.964 317.07L434.97 317.049L434.977 317.027L434.984 317.006L434.991 316.984L434.998 316.963L435.005 316.941L435.012 316.92L435.019 316.898L435.026 316.877L435.033 316.856L435.04 316.835L435.048 316.813L435.056 316.792L435.064 316.771L435.072 316.75L435.08 316.728L435.088 316.707L435.096 316.686L435.104 316.665L435.112 316.644L435.12 316.623L435.128 316.602L435.136 316.581L435.145 316.56L435.154 316.539L435.163 316.518L435.172 316.497L435.181 316.476L435.19 316.455L435.199 316.434L435.208 316.413L435.217 316.393L435.226 316.372L435.236 316.351L435.246 316.331L435.256 316.31L435.266 316.289L435.276 316.269L435.286 316.248L435.296 316.227L435.306 316.207L435.316 316.187L435.326 316.166L435.336 316.146L435.347 316.125L435.358 316.105L435.369 316.085L435.38 316.065L435.391 316.044L435.402 316.024L435.413 316.004L435.424 315.984L435.435 315.964L435.446 315.944L435.457 315.923L435.469 315.904L435.481 315.884L444.392 300.449L458.108 324.155ZM506.314 324.155H462.775L446.724 296.348L468.96 257.832H505.869L506.314 324.155ZM436.555 316.444L436.545 316.461L436.536 316.476L436.527 316.491L436.518 316.507L436.509 316.523L436.5 316.539L436.492 316.554L436.484 316.57L436.475 316.586L436.467 316.601L436.459 316.617L436.451 316.633L436.443 316.649L436.435 316.664L436.427 316.68L436.419 316.697L436.411 316.712L436.403 316.728L436.395 316.744L436.387 316.76L436.379 316.776L436.371 316.792L436.364 316.809L436.357 316.824L436.35 316.84L436.343 316.857L436.336 316.873L436.329 316.889L436.324 316.908L436.317 316.924L436.31 316.941L436.303 316.957L436.296 316.973L436.289 316.989L436.282 317.006L436.275 317.022L436.269 317.038L436.263 317.055L436.257 317.071L436.251 317.088L436.245 317.104L436.239 317.12L436.233 317.137L436.227 317.154L436.221 317.17L436.215 317.186L436.209 317.203L436.203 317.22L436.197 317.236L436.191 317.253L436.186 317.269L436.181 317.286L436.176 317.303L436.171 317.319L436.166 317.336L436.161 317.353L436.156 317.369L436.151 317.386V317.403V317.419V317.437V317.453V317.47V317.487V317.504V317.521V317.537V317.554V317.571V317.588V317.605V317.622V317.639V317.656V317.673V317.69V317.707V317.724V317.741V317.758V317.775V317.792V317.809V317.826V317.843V317.86V317.877V317.894V317.912V317.928V317.946V317.963V317.98V317.997V318.014V318.031V318.048V318.066V318.083V318.1V318.117V318.135V318.152V318.169V318.186V318.204V318.221V318.238V318.797V318.831V318.866V318.9V318.935V318.969V318.987V319.021V319.055V319.073V319.09V319.124V319.141V319.175V319.193V319.21L436.156 319.244L436.161 319.278V319.296V319.313L436.167 319.347V319.364L436.173 319.398V319.415V319.432L436.18 319.466V319.483L436.187 319.517V319.534L436.195 319.568V319.585V319.601V319.619V319.635V319.652L436.204 319.686V319.703V319.72V319.736V319.753V319.77V319.787L436.214 319.82L436.219 319.837L436.224 319.853L436.235 319.887L436.24 319.903L436.245 319.92L436.251 319.937L436.257 319.953L436.263 319.97L436.269 319.986L436.275 320.003L436.281 320.019L436.287 320.036L436.293 320.052L436.299 320.069L436.305 320.085L436.311 320.102L436.324 320.134L436.33 320.151L436.336 320.167L436.343 320.183L436.35 320.2L436.357 320.216L436.378 320.265L436.385 320.282L436.392 320.298L436.399 320.314L436.406 320.33L436.413 320.346L436.42 320.363L436.435 320.395L436.443 320.41L436.451 320.426L436.459 320.443L436.467 320.458L436.475 320.474L436.483 320.49L436.491 320.506L436.499 320.522L436.507 320.538L436.515 320.553L436.54 320.602L436.549 320.618L436.557 320.633L436.566 320.649L436.575 320.665L436.584 320.68L436.593 320.696L436.602 320.711L436.611 320.727L436.62 320.742L436.629 320.758L436.638 320.773L436.647 320.788L436.656 320.803L436.666 320.819L436.675 320.834L436.684 320.849L436.694 320.864L436.704 320.879L436.714 320.894L436.724 320.909L436.734 320.924L436.744 320.938L436.764 320.968L436.774 320.982L436.784 320.997L436.794 321.012L436.804 321.026L436.814 321.041L436.835 321.069L436.846 321.084L436.856 321.098L436.877 321.126L436.887 321.14L436.898 321.154L436.909 321.169L436.92 321.182L436.931 321.196L436.953 321.224L436.964 321.237L436.975 321.251L436.986 321.265L436.998 321.279L437.009 321.292L437.02 321.305L437.031 321.319L437.042 321.332L437.053 321.346L437.064 321.359L437.076 321.372L437.087 321.385L437.099 321.398L437.111 321.412L437.122 321.424L437.134 321.437L437.146 321.45L437.158 321.463L437.17 321.476L437.182 321.489L437.194 321.501L437.206 321.514L437.218 321.527L437.23 321.539L437.242 321.551L437.254 321.564L437.267 321.577L437.291 321.601L437.304 321.613L437.316 321.625L437.328 321.637L437.341 321.649L437.354 321.662L437.367 321.673L437.38 321.685L437.393 321.697L437.406 321.709L437.419 321.72L437.432 321.732L437.445 321.744L437.458 321.756L437.47 321.767L437.483 321.778L437.496 321.79L437.51 321.801L437.523 321.813L437.536 321.824L437.549 321.835L437.562 321.846L437.576 321.857L437.589 321.868L437.602 321.879L437.616 321.89L437.629 321.901L437.643 321.911L437.657 321.922L437.671 321.933L437.684 321.943L437.698 321.954L437.712 321.965L437.725 321.975L437.739 321.985L437.753 321.996L437.767 322.006L437.781 322.016L437.795 322.027L437.809 322.037L437.823 322.047L437.837 322.057L437.851 322.066L437.865 322.076L437.88 322.086L437.894 322.096L437.923 322.116L437.937 322.125L437.952 322.134L437.967 322.144L437.981 322.153L437.996 322.163L438.011 322.172L438.04 322.19L438.055 322.2L438.07 322.209L438.084 322.218L438.099 322.226L438.159 322.262L438.174 322.271L438.189 322.279L438.204 322.287L438.22 322.296L438.235 322.305L438.25 322.313L438.265 322.321L438.28 322.329L438.296 322.337L438.311 322.346L438.327 322.354L438.343 322.362L438.358 322.369L438.373 322.377L438.405 322.393L438.42 322.4L438.452 322.416L438.467 322.423L438.483 322.431L438.499 322.438L438.514 322.445L438.53 322.452L438.546 322.46L438.562 322.467L438.578 322.474L438.594 322.481L438.61 322.488L438.626 322.494L438.642 322.501L438.658 322.508L438.674 322.515L438.69 322.521L438.723 322.535L438.739 322.541L438.755 322.547L438.771 322.553L438.788 322.56L438.82 322.572L438.837 322.578L438.853 322.584L438.87 322.59L438.886 322.596L438.902 322.601L438.919 322.607L438.935 322.613L438.951 322.618L438.968 322.624L438.984 322.629L439 322.635L439.033 322.645L439.05 322.65L439.067 322.656L439.1 322.666L439.117 322.671H439.133L439.15 322.676L439.168 322.681L439.185 322.686H439.202L439.22 322.691H439.237L439.253 322.696H439.27H439.288L439.305 322.701H439.321H439.338H439.356H439.373H439.39H439.407H439.424H439.442H439.459H439.476H439.494H439.511H439.528H439.546H439.564H439.582H439.6L439.634 322.707H439.652H439.67H439.687H439.705H439.723H439.741H439.759H439.776H439.794H439.83H439.848H439.865H439.882H439.9H439.919H439.936H439.953H439.972H439.99H440.007H440.043H440.061H455.958L444.391 302.868L436.555 316.444ZM469.673 259.078L448.159 296.348L463.493 322.909H505.066L504.633 259.076L469.673 259.078Z" fill="url(#paint1_linear)"/>
</g>
</g>
<g id="Group 41">
<g id="Rectangle 233" filter="url(#filter1_d)">
<path d="M299 86H105C99.4772 86 95 90.4772 95 96V290C95 295.523 99.4772 300 105 300H299C304.523 300 309 295.523 309 290V96C309 90.4772 304.523 86 299 86Z" fill="#E8E8E8"/>
</g>
<g id="figma-logo">
<path id="path0_fill" d="M175.008 258.052C180.756 258.05 186.268 255.766 190.332 251.701C194.397 247.637 196.681 242.125 196.683 236.377V214.701H175.008C169.259 214.701 163.746 216.985 159.681 221.05C155.616 225.115 153.333 230.628 153.333 236.376C153.333 242.125 155.616 247.638 159.681 251.703C163.746 255.768 169.259 258.052 175.008 258.052Z" fill="#0ACF83"/>
<path id="path1_fill" d="M153.333 193.026C153.335 187.278 155.619 181.766 159.684 177.702C163.748 173.637 169.26 171.353 175.008 171.351H196.684V214.702H175.008C169.26 214.7 163.748 212.415 159.683 208.351C155.619 204.286 153.335 198.774 153.333 193.026V193.026Z" fill="#A259FF"/>
<path id="path1_fill_1_" d="M153.333 149.675C153.335 143.927 155.619 138.415 159.684 134.351C163.748 130.286 169.26 128.002 175.008 128H196.684V171.351H175.008C169.26 171.349 163.748 169.064 159.683 165C155.619 160.935 153.335 155.423 153.333 149.675V149.675Z" fill="#F24E1E"/>
<path id="path2_fill" d="M196.684 128H218.359C224.108 128 229.621 130.284 233.686 134.349C237.751 138.414 240.035 143.927 240.035 149.676C240.035 155.424 237.751 160.937 233.686 165.002C229.621 169.067 224.108 171.351 218.359 171.351H196.684V128Z" fill="#FF7262"/>
<path id="path3_fill" d="M240.035 193.026C240.035 197.313 238.764 201.503 236.382 205.068C234.001 208.632 230.615 211.41 226.655 213.051C222.694 214.692 218.336 215.121 214.132 214.285C209.927 213.448 206.065 211.384 203.034 208.353C200.003 205.322 197.938 201.46 197.102 197.255C196.265 193.051 196.694 188.693 198.335 184.732C199.975 180.771 202.753 177.386 206.317 175.004C209.882 172.623 214.072 171.351 218.359 171.351C224.107 171.353 229.619 173.637 233.684 177.701C237.749 181.766 240.033 187.278 240.035 193.026Z" fill="#1ABCFE"/>
</g>
</g>
</g>
</g>
<defs>
<filter id="filter0_d" x="339" y="202" width="226" height="226" filterUnits="userSpaceOnUse" color-interpolation-filters="sRGB">
<feFlood flood-opacity="0" result="BackgroundImageFix"/>
<feColorMatrix in="SourceAlpha" type="matrix" values="0 0 0 0 0 0 0 0 0 0 0 0 0 0 0 0 0 0 127 0"/>
<feOffset dy="3"/>
<feGaussianBlur stdDeviation="3"/>
<feColorMatrix type="matrix" values="0 0 0 0 0 0 0 0 0 0 0 0 0 0 0 0 0 0 0.161 0"/>
<feBlend mode="normal" in2="BackgroundImageFix" result="effect1_dropShadow"/>
<feBlend mode="normal" in="SourceGraphic" in2="effect1_dropShadow" result="shape"/>
</filter>
<filter id="filter1_d" x="89" y="83" width="226" height="226" filterUnits="userSpaceOnUse" color-interpolation-filters="sRGB">
<feFlood flood-opacity="0" result="BackgroundImageFix"/>
<feColorMatrix in="SourceAlpha" type="matrix" values="0 0 0 0 0 0 0 0 0 0 0 0 0 0 0 0 0 0 127 0"/>
<feOffset dy="3"/>
<feGaussianBlur stdDeviation="3"/>
<feColorMatrix type="matrix" values="0 0 0 0 0 0 0 0 0 0 0 0 0 0 0 0 0 0 0.161 0"/>
<feBlend mode="normal" in2="BackgroundImageFix" result="effect1_dropShadow"/>
<feBlend mode="normal" in="SourceGraphic" in2="effect1_dropShadow" result="shape"/>
</filter>
<radialGradient id="paint0_radial" cx="0" cy="0" r="1" gradientUnits="userSpaceOnUse" gradientTransform="translate(479.521 240.516) scale(123.106 123.116)">
<stop stop-color="#6BE1FB"/>
<stop offset="1" stop-color="#38BDFA"/>
</radialGradient>
<linearGradient id="paint1_linear" x1="392.406" y1="78.9297" x2="392.515" y2="78.9297" gradientUnits="userSpaceOnUse">
<stop stop-color="#4AC5FA"/>
<stop offset="1" stop-color="#97E8FC"/>
</linearGradient>
<clipPath id="clip0">
<rect width="674" height="660.33" fill="white"/>
</clipPath>
</defs>
</svg>
